<svg width="226" height="31" viewBox="0 0 226 31" fill="none" xmlns="http://www.w3.org/2000/svg">
<g id="Layer_1" clip-path="url(#clip0_189_158)">
<path id="Vector" d="M22.5449 22.4299C22.0387 23.1928 21.4374 23.8538 20.7413 24.4128C20.0452 24.9754 19.2576 25.4078 18.3752 25.7137C17.4927 26.0196 16.5329 26.1743 15.4887 26.1743C14.019 26.1743 12.6619 25.9071 11.4208 25.3727C10.1797 24.8383 9.11093 24.1034 8.2144 23.1682C7.31786 22.233 6.61821 21.1255 6.11193 19.8423C5.60213 18.559 5.34899 17.1562 5.34899 15.6338C5.34899 14.2169 5.60213 12.895 6.11193 11.6644C6.61821 10.4339 7.32138 9.36156 8.2144 8.4369C9.10742 7.51575 10.1797 6.79501 11.4208 6.27115C12.6619 5.7508 14.019 5.49063 15.4887 5.49063C17.2536 5.49063 18.8146 5.9723 20.1788 6.93212C21.5429 7.89546 22.5695 9.21741 23.2657 10.9015L27.9558 8.93615C27.555 7.75834 26.9397 6.67898 26.1135 5.69104C25.2838 4.70309 24.3099 3.84874 23.1883 3.12448C22.0668 2.40373 20.8433 1.84823 19.5213 1.46149C18.1994 1.07475 16.8422 0.891924 15.4535 0.920051C13.2631 0.920051 11.231 1.27515 9.36056 1.98183C7.49014 2.68851 5.86582 3.69756 4.49113 5.00896C3.11644 6.31685 2.03356 7.90249 1.24602 9.75885C0.45847 11.6152 0.0646973 13.679 0.0646973 15.9502C0.0646973 18.2215 0.45847 20.1833 1.24602 22.001C2.03356 23.8187 3.11644 25.3727 4.49113 26.67C5.86582 27.9673 7.49014 28.9658 9.36056 29.676C11.231 30.3827 13.2596 30.7378 15.4535 30.7378C17.0848 30.7097 18.6142 30.4706 20.0417 30.0171C21.4691 29.5635 22.7664 28.9272 23.9302 28.115C25.0939 27.2993 26.0959 26.3255 26.9362 25.1898C27.7765 24.0542 28.4269 22.792 28.8805 21.4033L23.7895 19.9618C23.4696 20.8443 23.0547 21.6635 22.5484 22.4264L22.5449 22.4299Z" fill="#150301"/>
<path id="Vector_2" d="M52.4434 12.9511H40.3806V1.64771H35.3284V30.024H40.3806V17.5182H52.4434V30.024H57.4922V1.64771H52.4434V12.9511Z" fill="#150301"/>
<path id="Vector_3" d="M76.0909 1.64771L63.7468 30.024H69.3159L72.1215 23.3298H84.9051L87.7107 30.024H93.4802L81.2592 1.64771H76.0909ZM73.6861 19.2023L78.5344 7.65978L83.3054 19.2023H73.6861Z" fill="#150301"/>
<path id="Vector_4" d="M117.209 12.9511H105.146V1.64771H100.097V30.024H105.146V17.5182H117.209V30.024H122.261V1.64771H117.209V12.9511Z" fill="#150301"/>
<path id="Vector_5" d="M155.226 4.95263C153.847 3.65529 152.248 2.66031 150.416 1.96769C148.584 1.27155 146.643 0.927002 144.587 0.927002C142.53 0.927002 140.593 1.2821 138.775 1.98878C136.957 2.69547 135.368 3.70451 134.004 5.01591C132.64 6.3238 131.564 7.90944 130.777 9.7658C129.989 11.6222 129.595 13.686 129.595 15.9572C129.595 18.2284 129.968 20.1902 130.717 22.0079C131.466 23.8256 132.499 25.3796 133.821 26.677C135.143 27.9743 136.718 28.9728 138.55 29.683C140.378 30.3897 142.389 30.7448 144.583 30.7448C146.64 30.7448 148.584 30.3826 150.412 29.6619C152.244 28.9411 153.844 27.918 155.222 26.5961C156.597 25.2741 157.687 23.6955 158.488 21.8673C159.29 20.0355 159.691 18.0139 159.691 15.7955C159.691 13.577 159.29 11.4745 158.488 9.64275C157.687 7.811 156.597 6.24997 155.222 4.95263H155.226ZM153.661 19.8422C153.165 21.1255 152.487 22.2329 151.618 23.1682C150.75 24.1034 149.72 24.8382 148.531 25.3726C147.343 25.907 146.039 26.1742 144.625 26.1742C143.212 26.1742 141.908 25.907 140.719 25.3726C139.531 24.8382 138.501 24.1034 137.632 23.1682C136.764 22.2329 136.089 21.1255 135.607 19.8422C135.126 18.5589 134.887 17.1561 134.887 15.6337C134.887 14.2168 135.133 12.8949 135.628 11.6644C136.124 10.4338 136.796 9.36148 137.654 8.43682C138.508 7.51567 139.531 6.79493 140.719 6.27107C141.908 5.75072 143.212 5.49055 144.625 5.49055C146.039 5.49055 147.311 5.75072 148.514 6.27107C149.716 6.79141 150.75 7.51216 151.618 8.43682C152.487 9.35797 153.169 10.4338 153.661 11.6644C154.157 12.8949 154.403 14.2168 154.403 15.6337C154.403 17.1561 154.157 18.5589 153.661 19.8422Z" fill="#150301"/>
<path id="Vector_6" d="M185.184 21.927H185.022L174.12 1.64771H167.429V30.024H172.478V9.0626H172.559L184.182 30.024H190.194V1.64771H185.184V21.927Z" fill="#150301"/>
<path id="Vector_7" d="M212.115 14.4312V18.9596L220.652 18.9842C220.532 19.6592 220.29 20.3518 219.931 21.062C219.449 22.0113 218.802 22.8586 217.987 23.6075C217.171 24.3564 216.204 24.9576 215.083 25.4111C213.961 25.8647 212.73 26.0264 211.394 25.8928C210.22 25.7873 209.109 25.4779 208.068 24.9716C207.028 24.4654 206.117 23.7692 205.344 22.8867C204.57 22.0043 203.948 20.9566 203.48 19.7401C203.013 18.5236 202.777 17.1559 202.777 15.6336C202.777 14.2167 203.009 12.8948 203.48 11.6642C203.948 10.4337 204.609 9.36486 205.463 8.45777C206.318 7.55069 207.341 6.82643 208.529 6.29202C209.717 5.75761 211.046 5.49041 212.516 5.49041C213.743 5.49041 214.808 5.65566 215.701 5.98966C216.598 6.32366 217.364 6.75611 218.004 7.29052C218.644 7.82492 219.179 8.4191 219.607 9.07304C220.033 9.72699 220.395 10.3739 220.69 11.0173L225.018 8.53161C224.512 7.38193 223.855 6.34124 223.053 5.40603C222.251 4.47082 221.323 3.66218 220.268 2.98011C219.214 2.29804 218.029 1.77066 216.721 1.39798C215.413 1.02179 213.996 0.835449 212.474 0.835449C210.283 0.835449 208.272 1.19758 206.441 1.91833C204.609 2.63907 203.034 3.66218 201.712 4.98413C200.39 6.30608 199.353 7.89524 198.607 9.75512C197.858 11.6115 197.486 13.6753 197.486 15.9465C197.486 17.8415 197.767 19.5784 198.326 21.157C198.889 22.7321 199.662 24.1243 200.65 25.3267C201.638 26.5292 202.819 27.5382 204.198 28.3539C205.572 29.1695 207.077 29.7637 208.705 30.1364C209.774 30.3755 210.895 30.4704 212.073 30.4177C213.247 30.3649 214.376 30.1716 215.459 29.8375C216.542 29.5035 217.523 29.0359 218.405 28.4347C219.288 27.8335 219.97 27.1057 220.448 26.2514V29.9782H225.177V14.4277H212.112L212.115 14.4312Z" fill="#150301"/>
</g>
<defs>
<clipPath id="clip0_189_158">
<rect width="225.119" height="29.8986" fill="white" transform="translate(0.0612793 0.846069)"/>
</clipPath>
</defs>
</svg>
