<svg width="208" height="44" viewBox="0 0 208 44" fill="none" xmlns="http://www.w3.org/2000/svg">
<g id="Group 6">
<path id="Vector" d="M77.1439 42.0758L78.2155 41.5642C78.6113 42.1293 79.1095 42.5814 80.1333 42.5814C80.9796 42.5814 81.5802 42.1829 81.5802 41.588C81.5802 40.9575 81.0888 40.6779 80.1811 40.327L79.6282 40.1128C78.4134 39.6429 77.6763 39.1076 77.6763 37.9833C77.6763 36.8591 78.6318 36.1274 80.0241 36.1274C81.1298 36.1274 81.8805 36.4903 82.3856 37.2755L81.3686 37.8227C81.0479 37.3409 80.6793 37.1149 80.0309 37.1149C79.3825 37.1149 78.9526 37.4658 78.9526 37.9595C78.9526 38.5068 79.3075 38.7507 80.1538 39.0719L80.693 39.286C82.1194 39.8333 82.8838 40.4103 82.8838 41.5761C82.8838 42.8491 81.744 43.5867 80.1674 43.5867C78.5908 43.5867 77.6217 42.9026 77.1576 42.0758H77.1439Z" fill="#7D7773"/>
<path id="Vector_2" d="M87.3335 36.2107H92.6434V37.2041H88.6371V39.3455H92.1861V40.321H88.6371V42.4981H92.814V43.4915H87.3335V36.2107Z" fill="#7D7773"/>
<path id="Vector_3" d="M96.1927 39.851C96.1927 37.6739 98.1106 36.1155 100.506 36.1155C102.902 36.1155 104.806 37.6799 104.806 39.851C104.806 42.0222 102.888 43.5866 100.506 43.5866C98.1242 43.5866 96.1927 42.0222 96.1927 39.851ZM103.482 39.851C103.482 38.2985 102.253 37.1326 100.506 37.1326C98.759 37.1326 97.5168 38.2985 97.5168 39.851C97.5168 41.4036 98.759 42.5694 100.506 42.5694C102.253 42.5694 103.482 41.4036 103.482 39.851Z" fill="#7D7773"/>
<path id="Vector_4" d="M108.846 40.9337V36.2107H110.15V40.8683C110.15 42.046 110.812 42.5695 112.027 42.5695C113.242 42.5695 113.917 42.046 113.917 40.8683V36.2107H115.207V40.9337C115.207 42.7004 113.829 43.5926 112.027 43.5926C110.225 43.5926 108.846 42.7063 108.846 40.9337Z" fill="#7D7773"/>
<path id="Vector_5" d="M119.63 36.2107H120.933V42.4981H124.79V43.4915H119.63V36.2107Z" fill="#7D7773"/>
<path id="Vector_6" d="M103.666 0.0505371H102.683V24.8909H103.666V0.0505371Z" fill="#C10230"/>
<path id="Vector_7" d="M85.1495 6.20713H80.8292V18.6808H85.1495C89.7633 18.6808 92.7185 16.2063 92.7185 12.4945C92.7185 8.78277 89.7633 6.20713 85.1495 6.20713ZM85.0062 17.1581H82.8222V7.72991H85.0062C88.8828 7.72991 90.6846 9.7464 90.6846 12.4945C90.6846 15.2427 88.8828 17.1581 85.0062 17.1581ZM70.3528 14.9036L60.9342 5.9573V18.6689H62.7906V10.1033L72.2092 19.0496V6.20713H70.3528V14.9036ZM0 12.4945C0 16.2004 2.95525 18.6808 7.569 18.6808H12.7083V12.2864H10.7222V17.1581H7.71232C3.82886 17.1581 2.02704 15.2665 2.02704 12.4945C2.02704 9.72261 3.82886 7.72991 7.71232 7.72991H12.7083V6.20713H7.569C2.95525 6.20713 0 8.78872 0 12.4945ZM32.3235 10.0736V10.0617C32.3167 7.32542 30.16 6.20713 26.3925 6.20713H22.0654V18.6808H24.0515V7.72396H26.3106C29.2045 7.72396 30.3033 8.28311 30.3101 10.0617V10.0736C30.3033 11.8462 29.2113 12.3042 26.3106 12.3042H24.9661L30.9039 18.6808H33.4087C33.4087 18.6808 28.5151 13.6902 28.5492 13.6842C30.9721 13.3214 32.3167 12.2388 32.3235 10.0736ZM40.343 18.6808H42.2813L43.7964 15.7602H50.1301L51.618 18.6808H53.6928L46.9974 5.93945L40.343 18.6808ZM44.7178 13.9816L46.9974 9.60959L49.2292 13.9816H44.7178Z" fill="#C10230"/>
<path id="Vector_8" d="M170.524 7.73584H175.711V18.663H177.724V7.73584H182.775V6.20711H170.524V7.73584ZM189.491 6.20711V7.73584H194.719V18.663H196.732V7.73584H202.015V6.20711H189.491ZM139.941 12.554L135.252 6.20711H133.013L138.876 14.3504V18.6689H140.89V14.3028L146.636 6.20711H144.48L139.941 12.554ZM151.073 18.663H153.031L154.635 15.8732H161.87L163.433 18.663H165.535L158.293 5.76099L151.079 18.663H151.073ZM155.652 14.0946L158.287 9.49655L160.873 14.0946H155.652Z" fill="#C10230"/>
<path id="Vector_9" d="M123.718 11.9531H116.156V6.20703H114.143V18.6688H116.156V13.4878H123.718V18.6688H125.738V6.20703H123.718V11.9531Z" fill="#C10230"/>
<path id="Vector_10" d="M204.56 6.45125H204.028V6.21313H205.414V6.45125H204.881V7.74304H204.56V6.45125ZM205.789 6.21909L206.69 7.10608L207.591 6.21909V7.749H207.27V6.86796L206.69 7.46921L206.103 6.86796V7.749H205.782V6.21909H205.789Z" fill="#C10230"/>
</g>
</svg>
