<svg width="172" height="53" viewBox="0 0 172 53" fill="none" xmlns="http://www.w3.org/2000/svg">
<g id="_&#235;&#160;&#136;&#236;&#157;&#180;&#236;&#150;&#180;_1" clip-path="url(#clip0_317_108)">
<path id="Vector" d="M70.2504 39.8473C71.837 39.1068 73.2743 37.6351 73.2743 35.3211C73.2743 34.1548 72.929 32.9886 72.3037 32.0815C70.2504 29.1936 66.0131 29.1936 63.6052 29.1936H55.588V52.5558H63.0732C65.5558 52.5558 68.6357 52.5558 70.801 51.4729C72.3503 50.6954 73.5076 49.5198 74.0583 48.1685C74.4223 47.2706 74.5809 46.4468 74.5809 45.5768C74.5809 42.874 73.0223 40.8284 70.241 39.8473H70.2504ZM61.6919 33.692H63.8665C66.2091 33.692 67.3384 34.2659 67.3384 35.895C67.3384 37.6814 65.7985 38.0886 63.8385 38.0886H61.6919V33.692ZM64.4638 48.0666H61.7386V42.7074H64.2958C66.7224 42.7074 68.4677 42.8648 68.5424 45.2528C68.6077 47.6224 66.7971 48.0574 64.4732 48.0574L64.4638 48.0666Z" fill="#162789"/>
<path id="Vector_2" d="M92.6405 29.1936V42.9758C92.6405 44.2346 92.6405 45.6508 91.9779 46.6782C91.0819 48.0018 89.1406 48.1129 88.5339 48.1129C87.5166 48.1129 85.818 47.9093 84.9967 46.5671C84.3807 45.586 84.3807 44.105 84.39 42.9018V29.1936H78.1275V43.3183C78.1275 44.7437 78.2022 46.2617 78.7528 47.6594C80.0781 51.0471 83.634 52.9908 88.4966 52.9908C93.3591 52.9908 97.1484 50.9638 98.3804 47.4187C98.8377 46.1414 98.903 44.8455 98.903 43.6237V29.1843H92.6405V29.1936Z" fill="#162789"/>
<path id="Vector_3" d="M119.417 40.2729C117.933 39.3195 115.805 38.5883 113.929 37.9496L112.063 37.3017C110.644 36.8111 109.468 36.339 109.468 35.4505C109.468 34.2657 110.812 33.59 112.324 33.5252C113.556 33.4789 114.471 33.8399 115.068 34.386C115.535 34.8118 115.787 35.432 115.787 36.4316H121.545C121.461 35.034 121.293 34.0621 120.761 33.0346C119.193 29.9061 115.432 28.7861 112.436 28.7861C108.059 28.7861 103.346 31.0076 103.346 35.8948C103.346 38.0144 104.307 39.8008 106.118 41.0596C107.667 42.1241 109.795 42.9016 111.671 43.5865L112.949 44.0586C113.761 44.3548 115.329 44.9472 115.815 45.6506C115.992 45.9005 116.048 46.1319 116.048 46.3356C116.048 47.7332 113.957 48.2053 112.847 48.233C111.475 48.2608 109.459 47.8443 108.619 46.1042C108.488 45.8265 108.283 45.2526 108.283 44.8268H102.59C102.646 45.5581 102.711 46.4189 102.963 47.1779C104.13 50.8803 107.713 53.0092 112.781 53.0092C115.572 53.0092 119.305 52.352 121.228 49.2142C121.9 48.1312 122.254 46.8909 122.254 45.5858C122.254 43.2718 121.302 41.4854 119.427 40.2821L119.417 40.2729Z" fill="#162789"/>
<path id="Vector_4" d="M138.877 29.1936H132.708L123.692 52.5558H130.141L131.737 47.8538H139.885L141.481 52.5558H147.939L138.886 29.1936H138.877ZM133.417 43.0591L135.788 36.1449L138.195 43.0591H133.417Z" fill="#162789"/>
<path id="Vector_5" d="M165.896 29.1936V43.5497L156.927 29.1936H150.702V52.5651H156.806V37.8572L166.092 52.5651H172V29.1936H165.896Z" fill="#162789"/>
<path id="Vector_6" d="M23.9768 29.1936H21.2422V52.5558H23.9768V29.1936Z" fill="#162789"/>
<path id="Vector_7" d="M41.6164 52.5651L35.6805 42.5778H31.6206V52.5651H28.9513V29.2029H34.0192C35.7458 29.2029 37.8178 29.2399 39.4137 29.8323C42.083 30.7949 43.4457 33.0904 43.4457 35.8395C43.4457 39.0791 41.551 41.1617 38.6111 42.1521L44.8083 52.5743H41.607L41.6164 52.5651ZM31.6113 31.4521V40.3009H34.8779C36.8751 40.3009 39.1151 40.0047 40.1511 38.0516C40.5151 37.3945 40.6831 36.6262 40.6831 35.8672C40.6831 31.8316 37.3511 31.4521 34.1499 31.4521H31.6206H31.6113Z" fill="#162789"/>
<path id="Vector_8" d="M10.4998 29.1936H8.07314L0 52.5651H2.7346L4.87189 46.382H13.701L15.801 52.5651H18.5356L10.4904 29.1936H10.4998ZM5.57187 44.0958L9.27712 32.424L13.0104 44.0958H5.5812H5.57187Z" fill="#162789"/>
<path id="Vector_9" d="M171.963 8.70997C171.832 8.58039 171.244 9.03393 170.861 9.36715C150.487 26.9443 131.83 11.8755 117.915 8.95988C111.839 7.68255 104.858 7.64553 97.6804 9.904C92.8178 11.4312 87.9366 9.86697 85.902 8.95988C80.6381 6.61811 77.4462 2.92495 72.1357 0.944164C67.0958 -0.944065 62.4852 0.351779 58.6773 1.78646C56.792 2.49918 52.1535 0.610947 50.3055 1.65688C49.7455 1.97158 47.5896 3.3785 48.2335 3.9246C48.3642 4.02642 49.0455 3.9246 49.4095 3.89684C51.4721 3.758 55.084 4.35964 56.932 5.05384C63.8292 7.65478 66.4238 14.3747 68.2251 18.6509C68.2251 18.6602 57.7627 8.46931 41.0377 12.9215C32.3579 15.2355 20.6635 21.5296 10.1731 16.1518C9.81843 15.9667 8.63313 15.1522 8.2878 15.2077C8.02648 15.254 8.75446 16.2166 9.13712 16.5776C12.1144 19.3174 20.4302 23.6955 35.4938 18.2437C50.2868 12.8937 65.4065 14.0507 71.417 24.4822C71.417 24.4822 71.809 9.03393 61.2812 4.23005C63.1012 3.05454 65.7518 2.79537 67.8517 3.03603C68.7477 3.13784 71.5663 3.49883 74.5436 5.26673C78.6968 7.74734 82.8407 11.5516 87.9086 13.1158C88.4033 13.2732 89.3366 13.4861 89.9899 13.5694C81.0114 19.3729 77.5955 27.5645 78.1462 26.8148C82.5141 20.9094 90.4379 14.3469 101.712 12.6345C102.655 12.5235 103.476 12.4216 104.13 12.3476C111.055 11.7552 117.625 13.3565 130.85 17.6143C157.02 26.028 167.053 15.4021 171.16 10.4594C171.897 9.58004 172.093 8.8303 171.963 8.70997Z" fill="#162789"/>
</g>
<defs>
<clipPath id="clip0_317_108">
<rect width="172" height="53" fill="white"/>
</clipPath>
</defs>
</svg>
