<svg width="93" height="93" viewBox="0 0 93 93" fill="none" xmlns="http://www.w3.org/2000/svg">
<g id="Layer_1" clip-path="url(#clip0_317_143)">
<path id="Vector" d="M46.4954 0C20.8188 0 0 20.8209 0 46.5C0 72.1791 20.8188 93.0093 46.4954 93.0093C72.1719 93.0093 93 72.1884 93 46.5C93 20.8116 72.1812 0 46.4954 0Z" fill="url(#paint0_radial_317_143)"/>
<g id="Vector_2" filter="url(#filter0_d_317_143)">
<path d="M46.4954 5.47827C23.8445 5.47827 5.48692 23.8469 5.48692 46.5001C5.48692 69.1532 23.8445 87.5219 46.4954 87.5219C69.1462 87.5219 87.5131 69.1625 87.5131 46.5001C87.5131 23.8377 69.1555 5.47827 46.4954 5.47827ZM46.4954 13.6863C49.7339 13.6863 52.8521 14.1768 55.8037 15.0466L46.5416 35.1457L37.4184 14.9911C40.3052 14.1583 43.3402 13.6956 46.4954 13.6956V13.6863ZM13.6942 46.5001C13.6942 43.5481 14.1198 40.6887 14.8508 37.9681L32.4681 76.1213C21.3832 70.8559 13.6942 59.5941 13.6942 46.5001ZM46.4954 79.3138C43.2939 79.3138 40.2035 78.8326 37.2703 77.9813L47.1708 56.4293L56.5717 77.7222C53.398 78.7493 50.0114 79.3138 46.4861 79.3138H46.4954ZM52.0285 47.5735H41.0732L34.3279 62.7404L19.9213 27.3171C22.5306 23.7081 25.8524 20.6544 29.6923 18.3595L41.0732 45.0472H52.4449L63.9462 18.7389C67.7768 21.1541 71.0893 24.3189 73.6339 28.0481L58.3482 63.7953L52.0285 47.5735ZM62.3639 75.2144L78.2325 38.3013C78.908 40.9293 79.3058 43.6684 79.3058 46.5001C79.3058 58.8723 72.4588 69.6251 62.3639 75.2236V75.2144Z" fill="url(#paint1_linear_317_143)"/>
</g>
<path id="Vector_3" d="M47.5132 57.1881L56.5809 77.7222C53.4072 78.7493 50.0207 79.3138 46.4954 79.3138C43.516 79.3138 40.6291 78.8974 37.881 78.1478L37.7422 78.4532C40.6754 79.3045 43.7565 79.7857 46.9673 79.7857C50.4833 79.7857 53.8699 79.2213 57.0436 78.1941L47.6427 56.9013L47.5132 57.1881ZM69.6922 23.3287C71.1449 24.7723 72.4773 26.3547 73.6339 28.0574L58.4963 63.4529L58.8201 64.2765L74.1058 28.5293C72.8196 26.6416 71.3392 24.9019 69.6922 23.338V23.3287ZM78.7044 38.7732L78.4731 39.3007C79.0005 41.6233 79.3058 44.0201 79.3058 46.5001C79.3058 58.5022 72.8659 68.9774 63.2522 74.7054L62.8266 75.6863C72.9214 70.0878 79.7685 59.335 79.7685 46.9627C79.7685 44.1311 79.3706 41.392 78.6952 38.7639L78.7044 38.7732ZM52.2043 48.0454L52.0193 47.5735H41.064L34.4667 62.4165L34.7906 63.2123L41.5359 48.0454H52.2043ZM46.9673 5.95021C58.1724 5.95021 68.332 10.4475 75.7342 17.7302C68.295 10.1699 57.9503 5.47827 46.4954 5.47827C23.8445 5.47827 5.48692 23.8469 5.48692 46.5001C5.48692 57.9469 10.1781 68.3019 17.7376 75.7419C10.4557 68.3389 5.95881 58.1783 5.95881 46.972C5.95881 24.3189 24.3164 5.95021 46.9673 5.95021ZM15.2301 38.7917L32.4681 76.1213C29.1278 74.5389 26.0929 72.4013 23.4929 69.838C26.204 72.6141 29.3962 74.909 32.94 76.5932L15.3227 38.4401C15.2949 38.5604 15.2671 38.6807 15.2301 38.7917ZM47.0135 35.6084L56.2756 15.5093C56.072 15.4538 55.8685 15.3983 55.6649 15.3427L46.6712 34.8589L47.0135 35.6084ZM41.064 45.0472H41.3323L30.1549 18.8314C30.0809 18.8777 30.0161 18.9239 29.9421 18.9702L41.064 45.0472Z" fill="white"/>
</g>
<defs>
<filter id="filter0_d_317_143" x="4.63692" y="4.62827" width="85.4262" height="85.4437" filterUnits="userSpaceOnUse" color-interpolation-filters="sRGB">
<feFlood flood-opacity="0" result="BackgroundImageFix"/>
<feColorMatrix in="SourceAlpha" type="matrix" values="0 0 0 0 0 0 0 0 0 0 0 0 0 0 0 0 0 0 127 0" result="hardAlpha"/>
<feOffset dx="0.85" dy="0.85"/>
<feGaussianBlur stdDeviation="0.85"/>
<feColorMatrix type="matrix" values="0 0 0 0 0.133333 0 0 0 0 0.117647 0 0 0 0 0.121569 0 0 0 0.7 0"/>
<feBlend mode="normal" in2="BackgroundImageFix" result="effect1_dropShadow_317_143"/>
<feBlend mode="normal" in="SourceGraphic" in2="effect1_dropShadow_317_143" result="shape"/>
</filter>
<radialGradient id="paint0_radial_317_143" cx="0" cy="0" r="1" gradientUnits="userSpaceOnUse" gradientTransform="translate(31.7094 18.9979) scale(64.2515 64.2579)">
<stop stop-color="#82B2DF"/>
<stop offset="1" stop-color="#1E2F5F"/>
</radialGradient>
<linearGradient id="paint1_linear_317_143" x1="34.6055" y1="28.1684" x2="64.7461" y2="74.6102" gradientUnits="userSpaceOnUse">
<stop stop-color="white"/>
<stop offset="1" stop-color="#8B8B8A"/>
</linearGradient>
<clipPath id="clip0_317_143">
<rect width="93" height="93" fill="white"/>
</clipPath>
</defs>
</svg>
