<svg width="115" height="72" viewBox="0 0 115 72" fill="none" xmlns="http://www.w3.org/2000/svg">
<g id="Layer_1" clip-path="url(#clip0_317_215)">
<path id="Vector" d="M78.4077 0C70.631 0 63.4262 2.38695 57.5 6.45389C51.5738 2.38695 44.3651 0 36.5923 0C16.3839 0 0 16.1195 0 36.0019C0 55.8843 16.3839 72 36.5923 72C44.3651 72 51.5738 69.6093 57.5 65.5423C63.4262 69.6093 70.631 72 78.4077 72C98.6161 72 114.996 55.8805 114.996 36.0019C114.996 16.1233 98.6161 0 78.4077 0Z" fill="white"/>
<path id="Vector_2" d="M112.207 22.2924C111.612 20.8709 110.928 19.4912 110.156 18.1685L71.3419 47.249L57.5 57.6178L52.0915 60.9777L34.4869 71.9128C35.19 71.9509 35.897 71.9737 36.6078 71.9737C38.8678 71.9737 41.0736 71.7684 43.2216 71.3807L53.4321 62.2776L57.5039 58.6478L70.2061 50.206L112.211 22.2924H112.207Z" fill="#FE000C"/>
<path id="Vector_3" d="M112.852 23.9531L57.8593 65.7704C63.712 69.6853 70.7778 71.981 78.3922 71.981C98.5852 71.981 114.954 55.8729 114.954 36.0057C114.954 31.7829 114.212 27.7274 112.848 23.9569L112.852 23.9531Z" fill="#FE000C"/>
<path id="Vector_4" d="M36.6078 0.0268555C16.4109 0.0268555 0.0424805 16.1312 0.0424805 35.9983C0.0424805 40.2287 0.78808 44.2843 2.14793 48.0509L57.133 6.22989C51.2802 2.31498 44.2144 0.0268555 36.6078 0.0268555Z" fill="#FE000C"/>
<path id="Vector_5" d="M57.5 29.1223L69.8855 21.0911L95.7381 4.32161C94.2198 3.51583 92.6359 2.81266 91.0018 2.21973L68.966 19.2401L57.5 28.0999L41.9081 38.3775L9.27557 59.8942C10.3109 61.0345 11.4158 62.1177 12.5863 63.1212L42.1437 40.7416L57.5 29.1185V29.1223Z" fill="#FE000C"/>
<path id="Vector_6" d="M57.5 36.5112L72.0141 27.0052L101.212 7.89062C99.9528 6.90239 98.6277 5.99018 97.2447 5.16919L71.3883 24.8881L57.5 35.4812L42.9821 44.991L13.7917 64.1132C15.0472 65.1014 16.3723 66.0136 17.7592 66.8346L43.6079 47.1119L57.5 36.515V36.5112Z" fill="#FE000C"/>
<path id="Vector_7" d="M57.5 43.885L73.088 33.615L105.721 12.1058C104.685 10.9618 103.58 9.88234 102.41 8.87891L72.8485 31.2433L57.5 42.8549L45.1068 50.8976L19.2581 67.6747C20.7763 68.4804 22.3602 69.1836 23.9982 69.7765L46.0301 52.7524L57.5 43.885Z" fill="#FE000C"/>
<path id="Vector_8" d="M57.5 21.7449L66.8412 15.7737L89.0547 1.58123C87.1849 1.0225 85.2533 0.608208 83.2676 0.345947L65.7093 14.2267L57.5038 20.711L42.2094 30.848L5.61322 55.0938C6.43222 56.3785 7.33235 57.6099 8.30588 58.7806L41.9235 33.4744L57.5038 21.7487L57.5 21.7449Z" fill="#FE000C"/>
<path id="Vector_9" d="M57.5 14.3599L62.8969 11.0113L80.5015 0.0837632C79.8023 0.0457545 79.1031 0.0229492 78.3961 0.0229492C76.1516 0.0229492 73.9534 0.224396 71.8209 0.604483L61.5718 9.71899L57.5039 13.3336L44.8016 21.7754L2.79309 49.708C3.38802 51.1333 4.07568 52.5093 4.84445 53.832L43.6658 24.7286L57.5 14.3561V14.3599Z" fill="#FE000C"/>
<path id="Vector_10" d="M57.5 51.274L72.7945 41.1446L109.391 16.9102C108.568 15.6217 107.672 14.3941 106.698 13.2234L73.0765 38.5182L57.5 50.2401L48.1511 56.2151L25.9415 70.4152C27.8074 70.9739 29.7429 71.3958 31.7247 71.6543L49.2868 57.7659L57.4962 51.2702L57.5 51.274Z" fill="#FE000C"/>
<path id="Vector_11" d="M23.8051 35.8386C23.8051 41.5475 28.5066 46.1732 34.3091 46.1732H45.779V40.5821H34.8113C33.2197 40.5821 31.8173 39.8105 30.9404 38.6398H45.8099V33.045H30.9365C31.8135 31.8705 33.2158 31.0989 34.8075 31.0989H45.8872V25.5078H34.3091C28.5104 25.5078 23.8051 30.1335 23.8051 35.8386Z" fill="#FE000C" stroke="#FE000C" stroke-width="2.28377"/>
<path id="Vector_12" d="M87.8107 25.5193H73.4589V31.1142H87.8107C88.9002 31.1142 89.7848 31.9846 89.7848 33.0564C89.7848 34.1283 88.9002 34.9987 87.8107 34.9987H73.5323V40.5898V46.1733H80.0071V40.5898H87.8107C92.041 40.5898 95.4715 37.2184 95.4715 33.0564C95.4715 28.8945 92.041 25.5193 87.8107 25.5193Z" fill="#FE000C" stroke="#FE000C" stroke-width="2.28377"/>
<path id="Vector_13" d="M66.4627 38.9591C66.4627 40.031 65.578 40.9014 64.4886 40.9014C63.3991 40.9014 62.5145 40.0348 62.5145 38.9591V25.5078H56.8278V38.9591C56.8278 40.031 55.9431 40.9014 54.8537 40.9014C53.7643 40.9014 52.8796 40.0348 52.8796 38.9591V25.5078H47.1968V36.4847V38.9591C47.1968 43.1211 50.6274 46.4963 54.8576 46.4963C56.6849 46.4963 58.3576 45.8653 59.675 44.8163C60.9924 45.8653 62.6651 46.4963 64.4924 46.4963C68.7188 46.4963 72.1532 43.1211 72.1532 38.9591V25.5078H66.4665V38.9591H66.4627Z" fill="#FE000C" stroke="#FE000C" stroke-width="2.28377"/>
<path id="Vector_14" d="M23.8051 35.8386C23.8051 41.5475 28.5066 46.1732 34.3091 46.1732H45.779V40.5821H34.8113C33.2197 40.5821 31.8173 39.8105 30.9404 38.6398H45.8099V33.045H30.9365C31.8135 31.8705 33.2158 31.0989 34.8075 31.0989H45.8872V25.5078H34.3091C28.5104 25.5078 23.8051 30.1335 23.8051 35.8386Z" fill="white"/>
<path id="Vector_15" d="M87.8107 25.5193H73.4589V31.1142H87.8107C88.9002 31.1142 89.7848 31.9846 89.7848 33.0564C89.7848 34.1283 88.9002 34.9987 87.8107 34.9987H73.5323V40.5898V46.1733H80.0071V40.5898H87.8107C92.041 40.5898 95.4715 37.2184 95.4715 33.0564C95.4715 28.8945 92.041 25.5193 87.8107 25.5193Z" fill="white"/>
<path id="Vector_16" d="M66.4627 38.9591C66.4627 40.031 65.578 40.9014 64.4886 40.9014C63.3991 40.9014 62.5145 40.0348 62.5145 38.9591V25.5078H56.8278V38.9591C56.8278 40.031 55.9431 40.9014 54.8537 40.9014C53.7643 40.9014 52.8796 40.0348 52.8796 38.9591V25.5078H47.1968V36.4847V38.9591C47.1968 43.1211 50.6274 46.4963 54.8576 46.4963C56.6849 46.4963 58.3576 45.8653 59.675 44.8163C60.9924 45.8653 62.6651 46.4963 64.4924 46.4963C68.7188 46.4963 72.1532 43.1211 72.1532 38.9591V25.5078H66.4665V38.9591H66.4627Z" fill="white"/>
</g>
<defs>
<clipPath id="clip0_317_215">
<rect width="115" height="72" fill="white"/>
</clipPath>
</defs>
</svg>
