<svg width="132" height="101" viewBox="0 0 132 101" fill="none" xmlns="http://www.w3.org/2000/svg">
<g id="Layer_1" clip-path="url(#clip0_317_72)">
<path id="Vector" d="M29.6786 59.9204C29.4279 59.9204 29.4279 60.3744 29.4279 60.3744C29.4279 60.3744 28.8263 66.326 26.5703 68.5957C26.5703 68.5957 25.6178 69.9071 25.0162 68.4948C24.4146 67.133 24.3645 65.0651 24.4146 63.2998C24.4146 63.2998 26.6706 60.7779 26.7207 57.9534C26.7709 55.1289 25.3672 53.4645 23.5122 52.5061C23.5122 52.5061 22.9608 52.1531 22.9106 53.1114C22.8605 54.0697 21.6072 58.1047 22.3592 65.2668C22.3592 65.2668 21.0056 68.6966 20.2035 68.747C19.4013 68.8479 18.0979 62.8963 21.2061 59.063C21.2061 59.063 21.8077 58.5082 21.3565 57.6508C20.9053 56.7933 19.4515 54.221 19.4515 54.221C19.4515 54.221 18.6995 53.5149 18.4989 54.3723C18.2984 55.1793 15.3907 61.3327 14.5886 63.7033C14.5886 63.7033 14.0371 55.482 16.0424 49.5303C16.0424 49.5303 16.5939 48.7233 15.9923 47.9163C15.3907 47.1093 13.4355 44.991 13.4355 44.991C13.4355 44.991 12.5833 44.6379 12.8339 45.3945C13.0345 46.151 13.6862 55.0785 12.4329 62.2406C12.4329 62.2406 10.6782 68.747 9.22435 68.6966C9.22435 68.6966 8.2217 69.3522 8.62276 57.9534C8.62276 57.9534 8.57263 57.2473 9.72568 57.1464C10.8787 56.9951 12.0819 56.9446 12.0819 56.9446V56.1376H9.02382C9.02382 56.1376 9.02382 53.6662 9.17422 53.061C9.32462 52.4053 9.02382 52.1531 9.02382 52.1531L7.3193 50.1356C7.3193 50.1356 6.16625 49.5808 6.26651 50.4887C6.41691 51.3461 6.61744 50.8922 6.61744 51.9009V56.1376H1.40362C1.40362 56.1376 0.952423 56.1376 0.751891 56.6925C0.551359 57.2473 0.05003 58.0543 0.05003 58.0543C0.05003 58.0543 -0.100369 58.9117 0.751891 58.4578C1.55402 58.0038 1.80468 57.6508 3.10814 57.6003C4.41159 57.5499 6.71771 57.5499 6.71771 57.5499L6.61744 67.4356C6.61744 67.4356 6.81798 71.2689 8.57263 71.1176C8.57263 71.1176 9.72568 71.8237 12.1822 65.6703C12.1822 65.6703 12.6334 65.3677 12.6334 66.0738C12.6334 66.7799 12.483 70.9662 13.5859 70.9158C13.5859 70.9158 14.9395 69.6044 14.9395 68.4444C14.9395 67.2843 16.1928 62.4928 17.7971 60.8788C17.7971 60.8788 16.7443 70.6132 19.4013 70.7645C19.4013 70.7645 20.404 71.1176 22.1586 67.5365C22.1586 67.5365 22.4093 67.0826 22.7101 67.5365C22.9608 67.9904 23.5122 70.4619 25.2669 70.361C27.0215 70.2097 29.6786 66.2251 30.0295 60.3239C30.0295 60.3239 29.8791 59.9709 29.6285 59.9709L29.6786 59.9204ZM24.7656 55.8855C25.7181 55.6837 25.8685 59.1134 24.5149 61.6858C24.5149 61.6858 23.8632 56.0872 24.7656 55.8855Z" fill="#005BAB"/>
<path id="Vector_2" d="M51.9377 52.4048C51.7372 51.5978 51.5366 51.5474 51.7372 50.6899C51.8875 50.0342 51.7372 49.429 51.7372 48.7229C51.8875 47.6132 51.5868 46.5036 51.6369 45.394C51.6369 44.7383 51.5868 44.1331 51.6369 43.5783C51.6369 42.8217 51.6369 42.0147 51.5868 41.2581C50.7846 41.0059 51.8374 39.8459 51.9377 39.4928C52.0379 38.9884 51.687 38.2823 51.5366 37.7275C51.4364 37.1223 51.6369 36.7188 51.687 36.0631C51.687 35.3065 51.3862 34.4491 51.5366 33.7934C51.6369 33.4403 51.8374 33.3395 51.8374 32.936C51.8374 32.6838 51.6369 32.5325 51.6369 32.2803C51.6369 31.7255 51.7873 31.1706 51.7873 30.5654C51.7873 30.2628 51.7873 29.9601 51.687 29.708C51.687 29.5062 51.4364 29.5062 51.4364 29.3045C51.4364 29.1532 51.5868 29.1532 51.6369 29.0523C51.687 28.6992 51.8374 28.5479 51.8374 28.1948C51.8374 27.8922 51.7372 27.5896 51.7372 27.287C51.7372 26.48 52.3889 24.3112 50.7345 24.866L50.183 25.4712C49.6817 26.3287 49.2806 26.9843 48.6289 27.7913C48.2278 28.2957 48.3281 28.4975 48.4284 29.1532C48.5286 29.9097 48.4785 29.9601 47.8769 30.2123C47.3756 30.4141 46.774 30.7671 47.6764 30.9689C48.0273 31.0193 48.3782 30.7671 48.5286 31.1706C48.7793 31.6246 48.3281 31.5741 48.0774 31.6246C47.4759 31.7759 47.1249 31.675 46.774 32.3307C46.4231 32.936 46.774 33.2386 46.9244 33.8438C47.1751 34.6508 46.7239 35.357 46.8241 36.164C46.9244 36.9709 47.0748 37.5258 47.0247 38.3328C46.9745 40.2494 46.8241 42.2669 47.0247 44.0826C47.2753 45.8479 46.6236 47.5628 46.6236 49.3281C46.6236 51.0934 46.0721 52.7579 45.7713 54.4223C45.5708 55.3302 45.3703 56.1876 45.0695 57.0955C44.8188 57.852 44.5681 58.6086 44.2673 59.4156C43.9665 60.273 43.9665 60.8278 43.4151 61.534C42.8636 62.2401 42.5628 62.7949 41.51 62.694C41.3596 62.3914 40.9586 62.2401 40.6578 62.0888C39.9058 61.7862 39.9559 61.8366 39.9058 61.0296C39.9058 60.4748 39.8055 59.6173 39.0535 59.6678C38.7026 59.0121 39.3042 58.6086 39.2039 57.9529C39.0535 57.3981 38.5021 57.1459 38.4018 56.4902C38.3517 56.1876 38.4018 55.8345 38.4018 55.5319C38.3517 55.1789 38.2013 55.078 38.0509 54.7249C37.7501 53.9179 37.8002 53.2622 37.9005 52.4552C37.9005 52.1526 38.0509 51.6987 38.0509 51.4465C38.0509 51.0934 37.8503 51.043 37.7501 50.6899C37.3991 49.7821 38.1511 49.2272 37.9005 48.4707C37.8002 48.2185 37.4994 48.0167 37.3991 47.7141C37.2989 47.4115 37.2487 47.1089 37.349 46.8062C37.4994 46.201 37.8002 45.7471 37.6999 45.0409C37.5495 44.2844 37.4994 44.0826 37.6498 43.3765C37.8503 42.6704 37.4493 42.2669 37.4493 41.6112C37.4493 41.1573 37.8002 40.7538 37.8503 40.2998C38.0007 38.8876 37.8503 37.5762 38.2013 36.2648C38.3517 35.6091 37.9506 35.2056 38.0007 34.55C38.0007 34.0456 38.3517 33.6421 38.5021 33.1881C38.7527 32.2298 38.6023 31.2211 39.0034 30.2628C39.2541 29.6071 39.2039 28.3462 39.6551 27.8922V27.1861C39.6551 27.1861 39.7554 26.5304 39.8055 26.5304C40.2066 26.0765 40.0562 25.4208 40.2066 24.8155C40.4071 24.0085 40.6578 23.2015 40.9084 22.445C41.4098 21.184 41.861 19.7214 42.613 18.6117C43.2647 17.603 43.6156 16.1907 44.6183 15.4846C45.3201 14.9802 45.9719 14.6272 46.5233 15.3837C46.8743 15.9385 46.8743 16.5438 46.3228 16.8969C46.3228 16.8969 45.9217 17.8552 46.4732 17.5525C47.8268 16.8969 48.2278 15.2829 48.5788 14.0219C48.7292 13.4671 48.9798 12.5592 48.679 12.0044C48.278 11.147 47.2753 11.4496 46.5735 11.7018C44.8689 12.7106 43.6156 14.4254 42.6631 16.4429C42.3623 17.0482 41.6604 18.1578 41.3095 18.7126C40.8583 19.3683 40.7079 19.9735 40.3068 20.6797C39.9559 21.3354 39.5548 22.0919 39.3543 22.798C39.1037 23.6555 38.6023 24.3112 38.2514 25.4712C37.8503 26.8835 37.5495 26.5808 37.1485 28.3462C36.8978 29.6071 35.8951 30.9185 35.845 32.1794C35.845 33.1881 35.093 33.3395 34.8424 34.8021C34.692 35.5587 34.3912 36.3657 34.4413 37.0718C34.4413 37.2231 34.5917 37.324 34.5416 37.5258C34.4914 37.6771 34.2408 37.5762 34.1906 37.7275C34.0402 38.0806 34.0402 38.131 33.9901 38.5345C33.94 38.8371 33.8898 39.3415 33.6392 39.3415V40.1989C33.2882 41.2077 33.3885 42.5191 33.0376 43.4774C32.837 44.0322 32.837 44.3348 32.9373 44.9401C33.0877 45.5957 32.837 45.5957 32.6866 46.2514C32.436 47.4115 32.3858 48.9751 32.3858 50.3873C32.3858 51.5474 32.5362 53.1614 32.2354 54.271C32.1352 54.6745 32.1853 54.9267 32.2354 55.431C32.2354 55.885 32.2354 56.2885 32.3357 56.7424C32.3357 57.2468 32.3357 57.7007 32.436 58.1547C32.5362 58.5077 32.837 58.9617 32.5362 59.2138L32.6866 60.1722C33.0376 62.4923 33.4888 65.8716 34.5917 68.1917C35.0429 69.2005 35.4439 70.3605 36.4967 70.9153C37.349 71.3693 38.8029 71.2684 39.3042 70.3101C38.9031 70.3101 38.0007 70.5118 37.5997 70.3101C37.1986 70.1083 36.4466 69.0996 36.1959 68.797C35.2935 67.6369 34.692 66.5273 34.4914 65.0646C34.341 63.8036 33.94 62.4923 33.6392 61.1809C33.6392 60.9287 33.2381 59.3147 33.94 59.5669C34.1906 59.6678 34.341 60.7774 34.3912 61.08C35.1432 63.2993 35.3938 65.922 36.8978 67.7882C37.5997 68.6456 38.6525 69.8057 39.7052 69.3518C40.7079 68.9483 41.6103 67.6873 42.1116 66.8299C42.7132 65.8716 43.2146 64.7115 43.9665 63.8541C45.0695 62.7445 46.1724 61.2818 46.9244 59.9704C47.0748 59.6173 47.7767 58.2555 47.8268 59.5165C47.8268 59.92 47.4759 60.0208 47.3756 60.3235C47.2753 60.727 47.5761 60.7774 47.6764 61.1305C47.8268 61.7357 47.6764 61.5844 47.4257 62.1392C47.3255 62.4923 47.4257 62.2905 47.4759 62.7445C47.5761 63.5515 47.4759 64.308 47.5761 65.115C47.5761 65.4681 47.5761 65.7203 47.5761 66.0229C47.5761 66.376 47.3756 66.5777 47.2753 66.8803C47.1751 67.4856 47.5761 67.8891 47.3255 68.5952V69.2509C47.0247 69.9066 47.5761 70.3605 47.526 71.0666C47.526 71.3188 47.2753 71.6214 47.2753 71.9241C47.2753 72.2771 47.4257 72.4789 47.4759 72.7815C47.4759 73.4372 47.1249 73.7903 47.2252 74.3955C47.2252 74.6477 47.4759 74.7486 47.4759 75.1016C47.4759 75.4043 47.2753 75.7069 47.2252 76.0599C47.1249 76.8669 47.2753 77.6739 47.4759 78.3801C47.6764 79.0862 47.2252 79.4392 47.3255 80.2967C47.3255 80.5993 47.5761 80.9019 47.6263 81.2046C47.6764 81.6585 47.526 81.7594 47.4759 82.1629C47.4759 82.4151 47.6263 82.7177 47.6263 82.9194C47.6263 83.2725 47.4257 83.5751 47.4257 83.9282C47.4257 84.3317 47.7767 84.4325 47.6764 84.836C47.6764 85.0882 47.2252 85.1891 47.2252 85.5926C47.2252 85.9457 47.6263 86.1474 47.6263 86.5005C47.6263 86.9544 47.2753 87.257 47.2252 87.7614C47.2252 88.064 47.3255 88.3667 47.2252 88.6189C47.2252 88.9719 46.9745 89.1737 46.9745 89.5772C46.9745 90.2833 47.526 90.8885 47.4257 91.6451C47.3255 92.3512 46.6236 92.9565 46.8241 93.713C46.8241 93.9148 47.1249 94.167 47.1751 94.3183C47.2252 94.7218 46.9745 94.8227 46.9244 95.1253C46.6236 96.2853 46.7239 97.748 46.6737 99.009C46.6737 99.3116 46.8241 99.9673 46.8241 100.27C47.0748 99.9673 47.1751 99.3116 47.4257 98.555C47.5761 98.1515 47.8268 98.1011 47.8769 97.6976C48.0774 96.6384 47.8769 95.5288 48.0774 94.52C48.278 93.36 48.3782 92.0486 48.4284 90.8381C48.4284 89.9302 48.4284 88.6693 48.8796 87.8119C49.3809 88.4675 49.2305 90.132 48.9798 90.8885C48.679 91.6451 48.9798 93.7635 49.1804 94.2678C49.7318 95.5792 49.782 91.746 49.782 91.292C49.782 90.7372 50.2332 88.064 50.6844 88.0136C50.8849 89.1232 50.6342 90.2833 50.6844 91.4938C51.5366 91.4433 51.7372 87.0049 51.8374 86.2483C52.0881 83.5751 51.5868 81.0532 52.038 78.4305V77.3713C52.038 77.3713 51.8374 76.1104 51.8374 75.7573C51.8876 75.1521 52.1382 74.5973 52.0881 73.8911C52.0881 73.0337 51.4865 72.5798 51.7372 71.7728C51.9878 70.9658 52.0881 70.6127 51.9878 69.7553C51.8876 69.0491 52.1883 68.2421 51.9878 67.5865C51.8876 67.2838 51.6369 67.1325 51.6369 66.7795C51.6369 66.4264 51.8876 66.3255 52.038 66.0229C52.1883 65.569 52.1382 64.8124 52.1382 64.308C52.1382 63.6523 51.7372 63.4002 51.9377 62.7445C52.0881 62.1897 52.1382 61.7862 52.1382 61.1809C52.1382 60.8278 52.1382 60.5252 52.1382 60.1722C52.1382 59.9704 51.8875 59.5669 51.9377 59.4156C51.9377 59.113 52.1884 59.0121 52.2886 58.7599C52.3387 58.4573 52.2886 58.2555 52.2886 57.9529C52.2886 57.3981 52.2385 56.8937 52.2385 56.3389V55.9859C52.2385 55.9859 52.1382 55.5824 52.2385 55.4815C52.2385 55.2293 52.2385 55.2797 52.2385 54.9771C52.2385 54.624 51.8876 54.2205 51.8876 53.9684C51.8876 53.3127 52.4891 53.1109 52.3387 52.4048H51.9377ZM32.837 57.8016C32.5864 56.7424 33.1378 56.1876 33.1378 56.1876C33.1378 56.1876 33.2381 56.3894 33.3885 56.7929C33.5389 57.2468 33.0376 58.6086 32.837 57.7512V57.8016ZM47.8769 34.7517C47.5761 34.3986 47.4759 33.4403 47.7766 33.0368C47.927 33.0368 48.1777 33.0368 48.3281 33.0368V33.6421C48.3281 34.096 48.5286 35.5083 47.8769 34.7517Z" fill="#005BAB"/>
<path id="Vector_3" d="M47.576 28.6479C47.576 28.6479 47.4256 28.2444 47.2251 28.3453C47.2251 28.3453 46.9744 28.6479 47.0747 28.7992C47.2251 28.9001 47.5259 28.6479 47.5259 28.6479H47.576Z" fill="#005BAB"/>
<path id="Vector_4" d="M47.0247 29.8595L47.7265 29.7082C47.7265 29.7082 47.526 29.2543 47.2252 29.3047C47.2252 29.3047 46.774 29.7082 47.0247 29.9099V29.8595Z" fill="#005BAB"/>
<path id="Vector_5" d="M132 52.5561C132 52.5561 131.699 52.1021 131.499 52.9091C131.298 53.7666 127.087 66.0229 125.332 66.0229C123.578 66.0229 124.129 56.3389 126.435 51.396C128.741 46.5036 125.583 43.4269 123.979 41.0563C123.979 41.0563 123.327 40.1989 122.675 40.6024C122.024 40.9555 121.923 41.6112 122.024 42.1155C122.174 42.5695 122.174 43.4773 121.221 45.747C120.269 48.0167 118.965 50.9925 117.762 54.8762C116.559 58.7599 116.81 60.4747 116.108 62.2905C115.406 64.1567 114.353 67.1325 112.699 67.0316C112.699 67.0316 111.295 65.115 112.899 57.7511C112.899 57.7511 113.952 53.1613 115.607 50.4377C115.607 50.4377 116.559 49.2776 116.008 47.5628C115.456 45.8479 114.504 44.133 113 41.8129C113 41.8129 112.448 41.1572 111.696 41.4094C110.944 41.6616 110.944 42.7712 110.944 42.7712C110.944 42.7712 111.295 49.0759 109.992 55.2293C108.688 61.4331 107.335 68.2421 105.229 68.2421C103.123 68.2421 104.678 55.9354 106.282 54.3718C107.936 52.8083 106.282 48.8741 105.881 48.1176C105.48 47.361 104.728 47.2601 104.327 47.9663C103.926 48.7228 102.071 52.8587 100.817 52.5056C100.817 52.5056 100.166 52.3543 100.968 49.7316C101.72 47.1088 102.772 36.9709 99.7144 36.7692C97.1576 36.6178 95.8542 47.2097 97.2579 52.8083C97.2579 52.8083 98.1603 54.8762 97.5587 57.852C96.9571 60.8782 94.7011 69.2508 92.395 69.0491C90.0889 68.8474 89.7881 60.5252 90.0387 58.8607C90.0387 58.8607 91.1417 58.2555 92.7459 53.2118C94.4003 48.168 95.3027 45.6461 90.8409 39.4928C90.8409 39.4928 90.2393 38.4336 89.3369 38.7362C88.4846 39.0893 88.9358 40.4007 88.8857 41.0059C88.8355 41.6111 85.4265 50.8916 86.9305 63.0471C86.9305 63.0471 84.8249 67.7377 83.8223 67.6873C82.8196 67.6369 82.5188 64.0558 82.4185 62.0383C82.2681 60.0208 81.7167 48.2184 82.7695 39.3919C82.7695 39.3919 87.6825 30.061 89.9385 10.693C89.9385 10.693 90.891 6.00234 88.3843 2.92566C88.3843 2.92566 87.8329 2.67347 87.3316 1.41253C86.8804 0.202035 85.5769 -0.352776 84.875 0.655972C84.2233 1.71516 78.5583 9.28077 78.5583 56.4902C78.5583 56.4902 76.7535 67.5864 73.8959 67.5864C71.0384 67.5864 72.041 45.9488 72.5925 38.8875C72.5925 38.8875 78.4079 25.1181 79.6111 8.47377C79.6111 8.47377 79.9119 5.64928 78.2074 3.43003C78.2074 3.43003 77.6058 2.92566 76.954 1.61428C76.3524 0.30291 75.5503 0.10116 74.9989 0.0507229C74.4474 0.000285503 74.0965 0.403785 72.8431 3.78309C71.5898 7.1624 67.88 26.833 68.5818 54.5231C68.5818 54.5231 66.5264 64.8628 64.4208 64.8628C62.3152 64.8628 62.967 54.3718 65.0224 48.8741C65.0224 48.8741 65.8747 47.1593 64.8219 46.0496C64.8219 46.0496 61.6635 42.519 59.4576 40.7537C59.4576 40.7537 58.0539 39.9972 58.2545 41.7625C58.455 43.5278 58.6054 48.0671 56.2993 53.6153C53.9932 59.2138 54.1436 70.7135 56.4998 71.0162C56.4998 71.0162 57.8534 71.9745 60.5606 64.7115C60.5606 64.7115 61.7638 71.2179 63.5686 71.0162C65.3232 70.8144 68.281 63.0471 68.4816 61.7861C68.4816 61.7861 70.0357 71.4197 72.8431 71.4197C75.6506 71.4197 78.6586 62.8957 78.6586 62.8957C78.6586 62.8957 80.1124 71.4197 82.8697 71.4197C85.627 71.4197 87.5321 65.7707 87.5321 65.7707C87.5321 65.7707 89.0862 71.3692 92.1945 71.2683C95.3027 71.2179 97.4584 65.9724 99.3133 56.8937C99.3133 56.8937 99.2632 55.7841 101.569 55.9354C101.569 55.9354 99.6643 71.3188 104.577 71.3692C104.577 71.3692 105.981 71.8736 108.989 65.922C108.989 65.922 109.54 71.3188 111.496 71.3188C111.496 71.3188 112.498 71.7727 115.556 66.4768C115.556 66.4768 115.957 71.3692 117.812 71.4197C119.667 71.4701 121.873 65.7202 121.873 65.7202C121.873 65.7202 122.575 71.4197 124.38 71.3692C126.235 71.3188 131.248 60.8782 131.95 52.6569L132 52.5561ZM91.8937 45.1418C93.6483 44.9905 91.8937 53.9683 90.2894 55.4814C90.2894 55.4814 90.0889 45.3435 91.8937 45.1418ZM87.4318 9.1799C87.4318 9.1799 88.1838 7.51546 88.2841 9.28077C88.4345 11.0461 87.0308 22.0414 83.7721 32.0785C83.7721 32.0785 83.2708 22.8989 87.4318 9.12946V9.1799ZM76.6532 9.28077C76.6532 9.28077 77.6559 6.7589 77.7562 9.68427C77.9066 12.5592 75.5002 27.4382 73.2442 32.1289C73.2442 32.1289 72.7429 23.9076 76.6031 9.33121L76.6532 9.28077ZM59.0566 63.1984C58.0539 64.7115 58.1542 62.8453 58.1542 62.8453C58.0038 53.8674 61.3627 50.6394 61.3627 50.6394C62.0646 58.2555 60.1094 61.6852 59.0566 63.1984ZM119.667 65.8211C118.615 67.5864 118.314 65.7202 118.314 65.7202C118.163 57.1459 122.776 51.7995 122.776 51.7995C123.528 55.6328 120.77 64.0054 119.667 65.7707V65.8211Z" fill="#005BAB"/>
<path id="Vector_6" d="M118.665 35.5581C119.116 33.6415 120.219 31.2709 118.514 28.7995C116.81 26.3281 115.556 24.8149 114.654 25.2184C113.752 25.6724 113.752 29.7074 116.76 35.0537C116.76 35.0537 118.264 37.4747 118.665 35.5581Z" fill="#005BAB"/>
<path id="Vector_7" d="M58.104 80.2454C58.104 80.2454 58.1542 80.3967 58.856 81.1532C59.5579 81.8594 60.1093 81.355 60.1093 81.355H62.0645C60.0091 87.2562 56.3494 88.8197 56.3494 88.8197C63.4682 87.3066 64.7216 80.2454 64.7216 80.2454H58.1542H58.104Z" fill="#005BAB"/>
<path id="Vector_8" d="M65.2228 79.59V88.9209L67.2783 87.1556V84.886H67.0276V83.5746H67.2783V78.0769H64.17C64.17 78.0769 65.2228 78.4804 65.2228 79.6405V79.59Z" fill="#005BAB"/>
<path id="Vector_9" d="M68.9327 84.8867V88.7703L70.9882 87.1059V76.2114H67.9301C67.9301 76.2114 68.9828 76.8167 68.9828 77.2706V83.5753H69.2335V84.8867H68.9327Z" fill="#005BAB"/>
<path id="Vector_10" d="M68.9829 83.676H67.3285V84.7352H68.9829V83.676Z" fill="#005BAB"/>
<path id="Vector_11" d="M70.938 96.0332C70.5369 96.0332 68.5316 96.2853 67.5791 96.4367H67.0276C67.0276 96.4367 66.0751 96.6384 66.0751 95.8314V94.3183C66.0751 94.3183 66.025 93.8643 66.777 93.8643C67.529 93.8643 70.6873 94.3687 70.8377 93.6626C70.938 92.9565 70.2863 92.6538 70.2863 92.6538L70.9881 89.8293H63.2175C63.2175 89.8293 63.9194 91.2416 64.8719 91.1912C65.7743 91.1912 65.8746 90.7372 65.8746 90.7372H68.8324V93.0573H63.2175C63.2175 93.0573 64.1701 93.5113 64.1701 94.3183V96.1845C64.1701 96.1845 64.1701 97.395 65.5738 97.395H70.9881C70.9881 97.395 71.5396 97.2941 71.5396 96.7897C71.5396 96.2853 71.2889 95.9827 70.938 95.9827V96.0332Z" fill="#005BAB"/>
<path id="Vector_12" d="M80.6138 90.5852V86.752C80.6138 86.752 80.6138 86.1467 81.4159 86.1467C82.2181 86.1467 84.4741 86.4998 84.5743 85.945C84.6245 85.3902 84.0229 85.3397 84.0229 85.3397C84.0229 85.3397 83.8725 85.138 84.1231 84.4319C84.3738 83.7257 85.3263 80.3464 85.3263 80.3464H77.9568C77.9568 80.3464 78.7088 81.5569 79.8618 81.5569C81.0149 81.5569 81.1152 81.1534 81.1152 81.1534H83.1706L82.7194 85.3902H77.4554C77.4554 85.3902 78.7589 85.945 78.7589 86.9537V92.0479C78.7589 92.0479 78.809 93.2584 79.912 93.3088C81.0149 93.3088 85.1759 91.1905 87.2815 88.2147C87.2815 88.2147 83.2207 91.0392 81.065 91.14C81.065 91.14 80.664 91.14 80.664 90.5348L80.6138 90.5852Z" fill="#005BAB"/>
<path id="Vector_13" d="M88.1336 77.8748V86.0457H84.875C84.875 86.0457 85.4766 87.4579 86.2787 87.4579C87.0808 87.4579 87.3816 86.9031 87.3816 86.9031H88.0835V97.5454L90.139 95.6792V76.3113H86.9806C86.9806 76.3113 88.1336 76.8661 88.1336 77.8244V77.8748Z" fill="#005BAB"/>
<path id="Vector_14" d="M106.733 77.8748C106.733 78.3792 106.733 83.9778 106.733 89.0719C105.029 89.7781 101.72 91.1399 100.166 91.1903C100.166 91.1903 99.8148 91.1903 99.8148 90.5851V86.7518C99.8148 86.7518 99.8148 86.1466 100.667 86.1466C101.519 86.1466 103.725 86.4996 103.775 85.9448C103.876 85.39 103.224 85.3396 103.224 85.3396C103.224 85.3396 103.073 85.1378 103.324 84.4317C103.575 83.7256 104.377 80.1445 104.377 80.1445H97.0074C97.0074 80.1445 97.7594 81.355 98.9124 81.355C100.065 81.355 100.166 80.9515 100.166 80.9515H102.221L101.92 85.39H96.6564C96.6564 85.39 97.9599 85.9448 97.9599 86.9536V92.0478C97.9599 92.0478 97.9599 93.2582 99.0628 93.3087C100.015 93.3087 104.277 92.0477 106.783 89.7781C106.783 93.9139 106.783 97.5454 106.783 97.5454L108.839 95.6792V76.3113H105.73C105.73 76.3113 106.833 76.8661 106.833 77.8244L106.733 77.8748Z" fill="#005BAB"/>
<path id="Vector_15" d="M120.871 80.902V80.1454C120.871 80.1454 120.871 79.7419 120.52 79.7419H118.364C118.364 79.7419 118.966 79.9941 118.966 80.3472V80.8516C117.111 81.3559 115.707 83.5247 115.707 86.0971C115.707 89.0729 117.562 91.4939 119.818 91.4939C122.074 91.4939 123.929 89.0729 123.929 86.0971C123.929 83.5752 122.625 81.5073 120.871 80.902ZM119.868 90.3842C118.715 90.3842 117.812 88.4172 117.812 86.0466C117.812 83.6761 118.715 81.7594 119.868 81.7594C121.021 81.7594 121.923 83.6761 121.923 86.0466C121.923 88.4172 121.021 90.3842 119.868 90.3842Z" fill="#005BAB"/>
<path id="Vector_16" d="M130.346 85.6422C129.895 85.6422 128.19 85.9448 127.639 86.0457V76.3113H124.48C124.48 76.3113 125.633 76.8661 125.633 77.8244C125.633 78.3288 125.633 83.9273 125.633 89.0215V89.7276C125.633 93.8635 125.633 97.495 125.633 97.495L127.689 95.6288V86.7014L130.346 86.9536C131.198 86.9536 131.449 86.6005 131.449 86.2475C131.449 85.7935 130.947 85.5918 130.396 85.5918L130.346 85.6422Z" fill="#005BAB"/>
</g>
<defs>
<clipPath id="clip0_317_72">
<rect width="132" height="100.32" fill="white"/>
</clipPath>
</defs>
</svg>
