<svg width="208" height="33" viewBox="0 0 208 33" fill="none" xmlns="http://www.w3.org/2000/svg">
<g id="Group 6">
<path id="Vector" d="M77.1439 31.1161L78.2155 30.7373C78.6113 31.1557 79.1095 31.4904 80.1333 31.4904C80.9796 31.4904 81.5802 31.1954 81.5802 30.755C81.5802 30.2881 81.0888 30.0812 80.1811 29.8213L79.6282 29.6628C78.4134 29.3149 77.6763 28.9185 77.6763 28.0862C77.6763 27.2538 78.6318 26.7122 80.0241 26.7122C81.1298 26.7122 81.8805 26.9808 82.3856 27.5621L81.3686 27.9673C81.0479 27.6106 80.6793 27.4432 80.0309 27.4432C79.3825 27.4432 78.9526 27.703 78.9526 28.0686C78.9526 28.4737 79.3075 28.6543 80.1538 28.8921L80.693 29.0506C82.1194 29.4558 82.8838 29.883 82.8838 30.7462C82.8838 31.6886 81.744 32.2347 80.1674 32.2347C78.5908 32.2347 77.6217 31.7282 77.1576 31.1161H77.1439Z" fill="#7D7773"/>
<path id="Vector_2" d="M87.3335 26.7738H92.6434V27.5093H88.6371V29.0947H92.1861V29.8169H88.6371V31.4288H92.814V32.1642H87.3335V26.7738Z" fill="#7D7773"/>
<path id="Vector_3" d="M96.1927 29.469C96.1927 27.8572 98.1106 26.7034 100.506 26.7034C102.902 26.7034 104.806 27.8616 104.806 29.469C104.806 31.0765 102.888 32.2347 100.506 32.2347C98.1242 32.2347 96.1927 31.0765 96.1927 29.469ZM103.482 29.469C103.482 28.3196 102.253 27.4564 100.506 27.4564C98.759 27.4564 97.5168 28.3196 97.5168 29.469C97.5168 30.6185 98.759 31.4816 100.506 31.4816C102.253 31.4816 103.482 30.6185 103.482 29.469Z" fill="#7D7773"/>
<path id="Vector_4" d="M108.846 30.2705V26.7738H110.15V30.2221C110.15 31.0941 110.812 31.4816 112.027 31.4816C113.242 31.4816 113.917 31.0941 113.917 30.2221V26.7738H115.207V30.2705C115.207 31.5785 113.829 32.2391 112.027 32.2391C110.225 32.2391 108.846 31.5829 108.846 30.2705Z" fill="#7D7773"/>
<path id="Vector_5" d="M119.63 26.7738H120.933V31.4288H124.79V32.1642H119.63V26.7738Z" fill="#7D7773"/>
<path id="Vector_6" d="M103.666 0.00231934H102.683V18.3931H103.666V0.00231934Z" fill="#C10230"/>
<path id="Vector_7" d="M85.1495 4.56042H80.8292V13.7955H85.1495C89.7633 13.7955 92.7185 11.9634 92.7185 9.21537C92.7185 6.46732 89.7633 4.56042 85.1495 4.56042ZM85.0062 12.668H82.8222V5.68783H85.0062C88.8828 5.68783 90.6846 7.18076 90.6846 9.21537C90.6846 11.25 88.8828 12.668 85.0062 12.668ZM70.3528 10.999L60.9342 4.37546V13.7866H62.7906V7.44499L72.2092 14.0685V4.56042H70.3528V10.999ZM0 9.21537C0 11.959 2.95525 13.7955 7.569 13.7955H12.7083V9.06123H10.7222V12.668H7.71232C3.82886 12.668 2.02704 11.2676 2.02704 9.21537C2.02704 7.16314 3.82886 5.68783 7.71232 5.68783H12.7083V4.56042H7.569C2.95525 4.56042 0 6.47172 0 9.21537ZM32.3235 7.42297V7.41416C32.3167 5.38836 30.16 4.56042 26.3925 4.56042H22.0654V13.7955H24.0515V5.68342H26.3106C29.2045 5.68342 30.3033 6.09739 30.3101 7.41416V7.42297C30.3033 8.73534 29.2113 9.07444 26.3106 9.07444H24.9661L30.9039 13.7955H33.4087C33.4087 13.7955 28.5151 10.1006 28.5492 10.0962C30.9721 9.82752 32.3167 9.026 32.3235 7.42297ZM40.343 13.7955H42.2813L43.7964 11.6331H50.1301L51.618 13.7955H53.6928L46.9974 4.36224L40.343 13.7955ZM44.7178 10.3164L46.9974 7.07947L49.2292 10.3164H44.7178Z" fill="#C10230"/>
<path id="Vector_8" d="M170.524 5.69221H175.711V13.7822H177.724V5.69221H182.775V4.5604H170.524V5.69221ZM189.491 4.5604V5.69221H194.719V13.7822H196.732V5.69221H202.015V4.5604H189.491ZM139.941 9.25939L135.252 4.5604H133.013L138.876 10.5894V13.7866H140.89V10.5541L146.636 4.5604H144.48L139.941 9.25939ZM151.073 13.7822H153.031L154.635 11.7168H161.87L163.433 13.7822H165.535L158.293 4.2301L151.079 13.7822H151.073ZM155.652 10.4L158.287 6.99577L160.873 10.4H155.652Z" fill="#C10230"/>
<path id="Vector_9" d="M123.718 8.81456H116.156V4.56036H114.143V13.7866H116.156V9.95077H123.718V13.7866H125.738V4.56036H123.718V8.81456Z" fill="#C10230"/>
<path id="Vector_10" d="M204.56 4.74111H204.028V4.56482H205.414V4.74111H204.881V5.6975H204.56V4.74111ZM205.789 4.56923L206.69 5.22592L207.591 4.56923V5.70191H207.27V5.04963L206.69 5.49476L206.103 5.04963V5.70191H205.782V4.56923H205.789Z" fill="#C10230"/>
</g>
</svg>
