<svg width="217" height="29" viewBox="0 0 217 29" fill="none" xmlns="http://www.w3.org/2000/svg">
<g id="New_Layer" clip-path="url(#clip0_317_153)">
<path id="Vector" fill-rule="evenodd" clip-rule="evenodd" d="M114.185 26.0195V3.41557H118.916V21.7336H127.248C128.724 21.7336 128.941 21.5161 128.941 19.5581V3.41557H133.672V20.5806C133.737 25.1275 132.5 26.0195 129.462 26.0195H114.163H114.185ZM212.247 26.0412V3.41557H217V26.0412H212.247ZM138.446 3.41557H153.744C155.914 3.41557 158.041 3.72014 157.954 8.28879V26.0195H153.223V9.92044C153.223 7.96246 153.006 7.5491 151.531 7.5491H143.198V26.0195H138.467V3.41557H138.446ZM94.221 3.41557L100.167 12.6616L106.026 3.41557H111.798L102.532 17.8829V26.0195H97.8015V17.8612L88.4705 3.41557H94.2427H94.221ZM65.9676 3.41557H70.6982V12.3353H81.3312V3.41557H86.0618V26.0195H81.3312V16.7952H70.6982V26.0195H65.9676V3.41557ZM182.453 8.28879V20.5371C182.453 24.4313 180.327 26.0195 177.701 26.0195H162.728V3.41557H177.701C181.737 3.41557 182.453 6.06973 182.453 8.28879ZM177.636 9.63762C177.636 8.39756 176.898 7.5491 175.618 7.5491H167.459V21.6901H175.618C177.484 21.6031 177.636 20.4283 177.636 19.5363V9.65938V9.63762ZM207.517 3.41557V26.0412H202.764V19.5363H191.958V26.0412H187.206V8.31054C187.206 5.17776 188.442 3.41557 191.958 3.41557H207.538H207.517ZM202.764 7.5491H193.867C192.37 7.65788 191.958 8.02772 191.958 9.92044V15.0982H202.764V7.5491ZM47.8264 4.5251C51.5371 6.61362 55.7686 10.312 55.3346 15.207C54.8355 19.7539 50.6908 22.9302 47.0018 24.8447C36.2386 30.1312 21.1137 30.2835 9.98165 25.6714C6.20585 24.0615 2.01775 21.2985 0.411947 17.1432C-0.781552 13.7276 0.694048 10.1598 3.14615 7.78841C8.35415 2.98046 14.9509 1.32705 21.7647 0.369808C29.1427 -0.543921 36.9113 0.26103 43.5081 2.58886C44.9837 3.1545 46.4376 3.76366 47.8264 4.54685V4.5251ZM41.7504 4.37281C37.3453 3.11099 32.7015 2.34955 27.7756 2.39306C25.4971 2.43657 23.8262 4.61212 22.9148 6.48309C22.1987 7.96246 21.3958 9.72465 22.0034 11.4216C22.3072 11.9872 22.828 12.3571 23.3922 12.5093C25.8009 13.0532 27.9709 12.0742 30.1409 11.5303C34.3941 10.0945 38.5605 8.48459 42.1844 5.56936C42.3363 5.3518 42.6184 5.17776 42.4882 4.85143C42.3363 4.59036 42.0108 4.54685 41.7504 4.37281ZM18.8352 3.50259C18.705 3.28504 18.4012 3.30679 18.1625 3.30679C15.7972 3.69839 13.5621 4.35105 11.4355 5.17776C7.81165 6.74415 3.47165 9.05023 2.40835 13.4013C1.73565 16.7299 4.05755 19.5364 6.61815 21.255C7.11725 21.4943 7.65975 22.2123 8.22395 21.6684C11.11 15.4463 14.148 9.18076 18.7701 3.78541L18.8352 3.50259ZM49.4756 8.26703C48.8463 7.83192 48.2821 7.20101 47.5009 7.13575C47.349 7.17926 47.1971 7.26628 47.1103 7.41857C46.264 9.37656 45.3526 11.291 44.3761 13.1838C42.2495 17.3826 39.8191 21.5379 36.6292 25.2363L36.5858 25.4756C36.6292 25.6931 36.8462 25.6714 36.9764 25.6931C39.2332 25.4756 41.2947 24.7577 43.3562 24.0397C47.132 22.5168 51.8843 20.1455 52.9476 15.6639C53.6203 12.6181 51.6673 10.1162 49.4756 8.26703ZM33.4827 17.8394C33.2006 17.0997 32.3977 16.5341 31.6165 16.4036C29.6852 16.1643 27.8841 16.7081 26.1915 17.2085C21.6345 18.7749 17.0124 20.276 13.1281 23.5176C12.9545 23.6699 12.8243 23.9092 12.9111 24.1703C13.0413 24.3661 13.1932 24.4748 13.3885 24.5401C17.7936 25.8889 22.3072 26.6069 26.9293 26.6721C29.0125 26.8897 30.7485 25.4321 31.8118 23.7569C32.7666 21.9512 33.895 20.0802 33.4827 17.8394Z" fill="#002C67"/>
</g>
<defs>
<clipPath id="clip0_317_153">
<rect width="217" height="29" fill="white"/>
</clipPath>
</defs>
</svg>
