<svg width="158" height="113" viewBox="0 0 158 113" fill="none" xmlns="http://www.w3.org/2000/svg">
<g id="Layer_1" clip-path="url(#clip0_317_156)">
<path id="Vector" d="M38.8622 108.493V99.0305H35.4732V108.493H33.1549V99.0305H29.7658V108.493H25.1757V111.158H46.1245V108.493H38.8622Z" fill="#003477"/>
<path id="Vector_2" d="M40.7709 105.903H42.9868C43.8154 101.63 44.402 96.2907 44.7465 92.7095C44.9327 90.7739 44.942 89.7734 43.2103 89.7734H27.4475V92.4383H40.7709V105.903Z" fill="#003477"/>
<path id="Vector_3" d="M61.822 108.493V103.939H58.0326V108.493H49.3925V111.158H70.3412V108.493H61.822Z" fill="#003477"/>
<path id="Vector_4" d="M65.2949 102.499C66.859 102.499 67.3991 101.63 67.3991 100.377V89.5398H63.6097V93.9345H56.1147V89.5398H52.3346V100.377C52.3346 101.621 52.8653 102.499 54.4295 102.499H65.2949ZM56.1147 100.209V96.5994H63.6097V100.209H56.1147Z" fill="#003477"/>
<path id="Vector_5" d="M112.565 104.042C111.177 103.135 109.436 102.752 107.546 102.752C105.656 102.752 103.915 103.145 102.528 104.042C101.001 105.033 100.303 106.38 100.303 107.876C100.303 109.372 101.001 110.719 102.528 111.71C103.915 112.607 105.665 113 107.546 113C109.427 113 111.177 112.607 112.565 111.71C114.091 110.719 114.799 109.372 114.799 107.876C114.799 106.38 114.101 105.033 112.565 104.042ZM110.218 109.69C109.52 110.27 108.58 110.522 107.546 110.522C106.513 110.522 105.572 110.27 104.874 109.69C104.241 109.166 104.064 108.549 104.064 107.876C104.064 107.203 104.25 106.576 104.874 106.053C105.572 105.473 106.522 105.23 107.546 105.23C108.57 105.23 109.52 105.482 110.218 106.053C110.851 106.576 111.038 107.193 111.038 107.876C111.038 108.559 110.851 109.176 110.218 109.69Z" fill="#003477"/>
<path id="Vector_6" d="M111.066 88.717V91.597H108.217V94.2618H111.066V96.0758H108.217V98.7407H111.066V102.154H114.855V88.717H111.066Z" fill="#003477"/>
<path id="Vector_7" d="M104.902 100.994C106.466 100.994 107.006 100.124 107.006 98.8714V89.7734H96.6807V98.8714C96.6807 100.115 97.2114 100.994 98.7849 100.994H104.902ZM103.217 92.4383V98.3197H100.461V92.4383H103.217Z" fill="#003477"/>
<path id="Vector_8" d="M80.8156 101.602L82.5194 100.311C79.7169 97.123 78.9069 93.8129 78.9069 89.5398H75.3968C75.3968 93.8129 74.5868 97.1136 71.7936 100.311L73.4975 101.602C75.1827 100.134 76.2441 98.5536 77.1565 96.6461C78.0689 98.563 79.1303 100.134 80.8156 101.602Z" fill="#003477"/>
<path id="Vector_9" d="M89.223 104.22C87.8357 103.332 86.0946 102.948 84.2046 102.948C82.3146 102.948 80.5735 103.332 79.1862 104.22C77.6593 105.192 76.961 106.511 76.961 107.979C76.961 109.447 77.6593 110.775 79.1862 111.738C80.5735 112.617 82.3239 113 84.2046 113C86.0853 113 87.8357 112.617 89.223 111.738C90.7499 110.765 91.4482 109.447 91.4482 107.979C91.4482 106.511 90.7499 105.192 89.223 104.22ZM86.8767 109.727C86.1784 110.288 85.2288 110.522 84.2046 110.522C83.1804 110.522 82.2308 110.279 81.5325 109.727C80.8994 109.222 80.7225 108.633 80.7225 107.979C80.7225 107.324 80.9087 106.735 81.5325 106.23C82.2308 105.679 83.1804 105.435 84.2046 105.435C85.2288 105.435 86.1784 105.679 86.8767 106.23C87.5098 106.726 87.6961 107.324 87.6961 107.979C87.6961 108.633 87.5098 109.222 86.8767 109.727Z" fill="#003477"/>
<path id="Vector_10" d="M88.1243 88.717V93.6915H86.7184V88.717H83.3294V101.948H86.7184V96.3564H88.1243V101.948H91.5134V88.717H88.1243Z" fill="#003477"/>
<path id="Vector_11" d="M68.6839 48.3884C64.8293 48.3884 61.4496 49.6414 59.1592 51.9977C56.543 54.5971 55.0998 58.6833 55.0998 63.4987C55.0998 68.3142 56.543 72.4003 59.1592 74.9998C61.4496 77.3561 64.8387 78.6464 68.6839 78.6464C72.5292 78.6464 75.9648 77.3654 78.2552 74.9998C80.8249 72.4003 82.268 68.3142 82.268 63.4987C82.268 58.6833 80.8249 54.5971 78.2552 51.9977C75.9648 49.6414 72.5385 48.3884 68.6839 48.3884ZM74.1958 71.8487C72.9388 73.4569 70.9557 74.3826 68.6839 74.3826C66.4121 74.3826 64.429 73.4663 63.2093 71.858C61.8034 70.1095 61.0586 67.1921 61.0586 63.5081C61.0586 59.824 61.7941 56.9534 63.2093 55.1581C64.429 53.5499 66.4494 52.6709 68.6839 52.6709C70.9184 52.6709 72.9388 53.5499 74.1958 55.1581C75.6017 56.9534 76.3279 59.8334 76.3279 63.5081C76.3279 67.1828 75.6017 70.1095 74.1958 71.858V71.8487Z" fill="#003477"/>
<path id="Vector_12" d="M143.122 51.9977C140.822 49.6414 137.396 48.3884 133.551 48.3884C129.705 48.3884 126.316 49.6414 124.007 51.9977C121.41 54.5971 119.976 58.6833 119.976 63.4987C119.976 68.3142 121.41 72.4003 124.007 74.9998C126.316 77.3561 129.705 78.6464 133.551 78.6464C137.396 78.6464 140.822 77.3654 143.122 74.9998C145.701 72.4003 147.135 68.3142 147.135 63.4987C147.135 58.6833 145.701 54.5971 143.122 51.9977ZM139.062 71.8487C137.805 73.4569 135.822 74.3826 133.551 74.3826C131.279 74.3826 129.296 73.4569 128.067 71.8487C126.67 70.1001 125.925 67.1828 125.925 63.4987C125.925 59.8147 126.67 56.9441 128.067 55.1488C129.286 53.5405 131.316 52.6616 133.551 52.6616C135.785 52.6616 137.805 53.5405 139.062 55.1488C140.468 56.9441 141.194 59.824 141.194 63.4987C141.194 67.1735 140.478 70.1001 139.062 71.8487Z" fill="#003477"/>
<path id="Vector_13" d="M41.6647 77.9452C41.3295 77.646 40.9385 76.9541 40.9385 75.9255V65.4344L50.6866 49.0337H44.011C44.4951 49.5199 44.5417 50.2867 43.9551 51.2123L38.676 60.3945C34.2349 52.325 34.2442 52.0913 33.4435 50.6233C32.8197 49.5106 32.2797 49.0337 31.0972 49.0337H25.8368C26.2557 49.4171 26.684 50.0061 27.5872 51.5116L35.3615 65.3689V75.9349C35.3615 76.9634 34.9611 77.6554 34.6352 77.9546H41.674L41.6647 77.9452Z" fill="#003477"/>
<path id="Vector_14" d="M91.5692 77.9453C91.9044 77.6461 92.2955 76.9542 92.2955 75.9256V51.0441C92.2955 50.0156 91.8951 49.3236 91.5692 49.0244H101.103C105.684 49.0244 109.678 51.2405 109.678 55.5417C109.678 57.365 108.85 59.9457 106.727 61.0865C109.297 62.0683 112.015 64.4526 112.015 68.4827C112.015 71.4748 110.535 74.0929 108.542 75.6077C106.699 77.0009 104.576 77.9453 101.103 77.9453H91.5692ZM97.8818 59.9457C98.9246 60.0673 101.047 59.927 101.96 59.4501C102.872 58.9733 103.915 58.272 103.915 56.4487C103.915 54.6253 102.407 53.1854 100.2 53.1854C99.3715 53.1854 98.6825 53.2321 97.8818 53.4846V59.9457ZM104.129 73.0737C105.777 72.0078 106.159 70.4556 106.159 68.8286C106.159 65.6588 103.384 64.2002 100.712 64.2002C100.144 64.2002 98.757 64.2189 97.8818 64.3685V73.6348C99.716 74.149 102.658 74.0181 104.129 73.0737Z" fill="#003477"/>
<path id="Vector_15" d="M0.726223 75.9254C0.726223 76.954 0.325869 77.6459 0 77.9451H7.03877C6.70359 77.6459 6.31255 76.954 6.31255 75.9254V64.6301L14.4965 76.3556C15.2507 77.4683 15.8372 77.9451 17.0197 77.9451H22.6619C22.2057 77.5618 21.7029 76.9727 20.6322 75.4673L11.4054 62.3299L20.837 49.0149H13.9006C14.2638 49.4918 14.301 50.0808 13.6306 51.2216L6.31255 61.8156V51.0346C6.31255 50.006 6.71291 49.3141 7.03877 49.0149H0C0.33518 49.3141 0.726223 50.006 0.726223 51.0346V75.9161V75.9254Z" fill="#003477"/>
<path id="Vector_16" d="M156.175 9.41589C153.55 6.74166 149.202 7.20918 146.641 9.93016C143.308 13.4459 140.72 14.755 137.638 14.6241C133.327 14.4371 131.204 11.0896 128.988 6.87257C126.689 2.45916 123.16 0 118.747 0C111.82 0 107.658 5.63831 107.658 11.9218C107.658 21.5902 114.427 27.3781 119.119 29.8185C123.02 31.8569 127.35 32.6985 131.204 32.8013C130.981 35.1202 130.301 38.1685 129.547 40.3284H137.48C136.697 38.1685 136.008 34.8678 135.794 32.5489C147.405 31.0341 152.926 25.7324 155.942 20.6925C157.302 18.4765 158.019 16.1856 158.009 14.1192C158.009 12.3145 157.423 10.6688 156.175 9.42524V9.41589ZM118.793 15.4656C116.54 15.6059 114.622 13.9041 114.483 11.66C114.343 9.41589 116.028 7.471 118.281 7.33074C120.506 7.19048 122.434 8.90161 122.573 11.1457C122.713 13.3898 121.028 15.3254 118.793 15.4656Z" fill="#45B035"/>
</g>
<defs>
<clipPath id="clip0_317_156">
<rect width="158" height="113" fill="white"/>
</clipPath>
</defs>
</svg>
