<svg width="55" height="35" viewBox="0 0 55 35" fill="none" xmlns="http://www.w3.org/2000/svg">
<path id="Vector" d="M8.65665 0.556806H0.941299V33.6495H24.6354V27.2071H8.65133V0.556806H8.65665ZM41.6092 21.0388H47.8932V26.8222C46.7332 27.2598 44.4772 27.6974 42.3275 27.6974C35.3837 27.6974 33.0691 24.202 33.0691 17.1058C33.0691 10.0096 35.2719 6.3508 42.2158 6.3508C46.0734 6.3508 48.2763 7.55283 50.0961 9.84617L54.8902 5.47564C51.969 1.32653 46.845 0.0717773 42.0508 0.0717773C31.2493 0.0717773 25.5719 5.91322 25.5719 17.0531C25.5719 28.1929 30.6959 34.1398 41.9923 34.1398C47.1695 34.1398 52.2404 32.8323 54.9966 30.9186V14.8652H41.6039V21.0388H41.6092Z" fill="#666464"/>
</svg>
