<svg width="145" height="52" viewBox="0 0 145 52" fill="none" xmlns="http://www.w3.org/2000/svg">
<g id="Layer_1" clip-path="url(#clip0_317_90)">
<path id="Vector" d="M54.9922 51.9997H51.6854V44.6609H52.4781V51.2366H55.0828L54.9922 51.9997Z" fill="#00917B"/>
<path id="Vector_2" d="M59.907 44.6609H59.1143V51.9772H59.907V44.6609Z" fill="#00917B"/>
<path id="Vector_3" d="M66.9057 51.9997H66.1129L63.8707 44.6833H64.7313L66.1356 49.4188C66.3394 50.0472 66.5206 50.8102 66.5206 51.0347C66.5659 50.8776 66.6792 50.3389 66.9283 49.5086L68.3326 44.7058H69.1706L66.883 52.0222L66.9057 51.9997Z" fill="#00917B"/>
<path id="Vector_4" d="M76.6222 51.9997L75.9881 49.733H74.7424V49.0372H75.7842L74.7877 45.4464L74.7424 45.4913V44.6609H75.3312L77.5282 51.9772H76.6222V51.9997ZM74.765 49.733H73.5646L72.9078 51.9997H72.1151L74.312 44.6833H74.765V45.5137L73.7684 49.0597H74.765V49.7554V49.733Z" fill="#00917B"/>
<path id="Vector_5" d="M84.7305 51.9997C84.572 51.5957 84.0963 50.7205 83.4395 49.733V48.1395C83.8246 48.0947 84.0284 47.9824 84.2322 47.8029C84.4361 47.556 84.572 47.1521 84.572 46.7032C84.572 46.2095 84.3228 45.7606 83.9151 45.5811C83.7793 45.4913 83.6207 45.4464 83.4622 45.4464V44.7058C84.119 44.7507 84.504 44.9078 84.7532 45.1547C85.0929 45.4015 85.41 45.8953 85.41 46.6808C85.41 47.8702 84.7079 48.7006 83.666 48.7006H83.5301C83.8699 48.9475 84.0737 49.329 84.1869 49.531C84.4814 49.935 85.7271 51.9997 85.7271 51.9997H84.7305ZM83.4395 49.733C83.3263 49.5759 83.1904 49.3515 83.0318 49.1495C82.7827 48.7904 82.6468 48.7006 82.3297 48.7006V51.9997H81.537V44.6833H83.0771C83.213 44.6833 83.3263 44.6834 83.4622 44.7282V45.4688C83.3489 45.424 83.2583 45.424 83.0771 45.424H82.3297V48.1844H83.0318C83.1904 48.1844 83.3263 48.1395 83.4395 48.1395V49.733Z" fill="#00917B"/>
<path id="Vector_6" d="M93.2694 45.4015H91.4801V51.9997H90.7326V45.4015H88.9434V44.6609H93.3147L93.2694 45.4015Z" fill="#00917B"/>
<path id="Vector_7" d="M84.0058 0H0V38.7363H84.0058V0Z" fill="#00917B"/>
<path id="Vector_8" d="M144.977 0H104.141V38.7363H144.977V0Z" fill="#DB9505"/>
<path id="Vector_9" d="M104.526 0H83.598V38.7363H104.526V0Z" fill="#1C1C1B"/>
<path id="Vector_10" d="M54.6298 22.7794C54.6298 24.2158 54.2222 25.3604 52.4782 25.3604H52.4329C50.6889 25.3604 50.2812 24.2158 50.2812 22.7794V12.366H48.3334V22.7794C48.3334 25.091 49.6697 26.9314 52.4329 26.9314H52.4782C55.264 26.9314 56.5777 25.091 56.5777 22.7794V12.366H54.6298V22.7794Z" fill="white"/>
<path id="Vector_11" d="M18.3005 18.4704H13.9519V12.3884H12.004V26.8192H13.9519V20.0639H18.3005V26.8192H20.2257V12.3884H18.3005V18.4704Z" fill="white"/>
<path id="Vector_12" d="M74.8328 22.6672L70.9372 12.3884H68.0834V26.8192H69.9406V14.6327L74.629 26.8192H76.7127V12.3884H74.8328V22.6672Z" fill="white"/>
<path id="Vector_13" d="M34.2003 18.5153L31.6183 12.3884H29.6478L33.249 20.7372V26.8192H35.1969V20.6923L38.7754 12.3884H36.737L34.2003 18.5153Z" fill="white"/>
<path id="Vector_14" d="M133.041 12.3884H131.161V26.8192H133.041V12.3884Z" fill="white"/>
<path id="Vector_15" d="M94.1526 26.7294C95.2624 26.5723 96.2363 26.1234 96.9385 25.2481C97.8444 24.1484 98.3427 22.3306 98.3427 19.5701C98.3427 16.8096 97.8444 15.0367 96.9385 13.937C96.2363 13.0617 95.2851 12.6128 94.1526 12.4557V14.1389C95.6475 14.498 96.4402 15.8222 96.4402 19.5701C96.4402 23.3181 95.6475 24.6197 94.1526 25.0462V26.7294ZM93.0655 12.3884H89.9852V26.8191H93.0655C93.4278 26.8191 93.8129 26.7743 94.1526 26.7294V25.0462C93.7449 25.1584 93.2467 25.1584 92.7031 25.2033H91.8651V13.9818H92.7031C93.2467 13.9818 93.7449 14.0267 94.1526 14.1389V12.4557C93.8129 12.4109 93.4505 12.366 93.0655 12.366V12.3884Z" fill="white"/>
<path id="Vector_16" d="M114.265 22.7346H116.168L117.074 26.7743H119.021L115.579 12.3884H114.242V13.9145L115.851 21.1187H114.242V22.757L114.265 22.7346ZM112.951 12.3884V12.4782L109.509 26.7967H111.457L112.363 22.757H114.265V21.1187H112.612L114.265 13.9145V12.3884H112.929H112.951Z" fill="white"/>
</g>
<defs>
<clipPath id="clip0_317_90">
<rect width="145" height="52" fill="white"/>
</clipPath>
</defs>
</svg>
