<svg width="146" height="89" viewBox="0 0 146 89" fill="none" xmlns="http://www.w3.org/2000/svg">
<g id="Layer_1" clip-path="url(#clip0_317_191)">
<path id="Vector" d="M99.471 36.8918C100.212 34.3299 100.605 31.7214 100.605 28.9421C100.621 12.9494 87.5748 0 71.4716 0C55.3684 0 42.322 12.9494 42.322 28.9265C42.322 31.6748 42.7002 34.3299 43.425 36.8453L99.4552 36.8918H99.471Z" fill="#E6001B"/>
<path id="Vector_2" d="M111.604 39.7178H31.5603V45.4627H74.3393L48.2623 49.7171L48.3253 54.6701L67.2961 55.8812L60.0324 57.465L59.9536 63.0391L81.8237 67.0295L83.5096 61.4864L75.5998 60.4151L92.3963 57.2321V51.7356L76.9549 50.8816L111.604 45.2919V39.7178Z" fill="#E6001B"/>
<path id="Vector_3" d="M47.5374 82.4787C47.5374 82.4787 44.78 82.3856 44.78 79.9168V77.5257C47.112 77.5257 49.2234 77.5257 49.2234 77.5257V75.6003H38.7295C38.2253 75.6314 37.8157 76.0506 37.8157 76.563C37.8157 77.0754 38.2568 77.5257 38.7926 77.5257C38.8083 77.5257 40.1319 77.5257 42.0069 77.5257V79.9168C42.0069 79.9168 42.0384 82.5253 38.4774 82.5253C37.9417 82.5253 37.5005 82.9601 37.5005 83.488C37.5005 84.0159 37.9417 84.4507 38.4774 84.4507C38.4774 84.4507 42.6056 84.3886 43.3935 82.3856C44.134 84.0935 46.4345 84.3885 47.632 84.3885H49.3652V82.4787H47.5217H47.5374Z" fill="#231815"/>
<path id="Vector_4" d="M53.84 76.3302C53.84 75.5849 53.2255 74.9639 52.4692 74.9639C51.7129 74.9639 51.0826 75.5694 51.0826 76.3302V88.5033H53.8558V76.3302H53.84Z" fill="#231815"/>
<path id="Vector_5" d="M137.838 82.4631C137.838 82.4631 135.096 82.3699 135.096 79.9011V79.5595H135.112V76.5939C135.112 75.8486 134.498 75.2275 133.726 75.2275C132.954 75.2275 132.355 75.8331 132.355 76.5939C132.355 76.5939 132.355 76.8579 132.355 77.215H132.323V79.9167C132.323 79.9167 132.355 82.5252 128.794 82.5252C128.258 82.5252 127.817 82.9599 127.817 83.4878C127.817 84.0157 128.258 84.4505 128.794 84.4505C128.794 84.4505 132.796 84.4505 133.584 82.432C134.324 84.14 136.751 84.3884 137.948 84.3884H139.682V82.4786H137.838V82.4631Z" fill="#231815"/>
<path id="Vector_6" d="M144.992 77.6965H143.889V76.2836C143.889 75.5383 143.274 74.9172 142.502 74.9172C141.73 74.9172 141.131 75.5228 141.131 76.2836V88.5032H143.904C143.904 88.5032 143.904 80.833 143.904 79.6064H145.07C145.606 79.5753 146.032 79.1561 146.032 78.6437C146.032 78.1313 145.575 77.681 145.007 77.681L144.992 77.6965Z" fill="#231815"/>
<path id="Vector_7" d="M90.0801 77.6654C90.0801 77.6654 89.5286 77.6654 88.9771 77.6654V76.237C88.9771 75.4917 88.3626 74.8706 87.6063 74.8706C86.85 74.8706 86.2197 75.4761 86.2197 76.237C86.2197 76.237 86.2197 78.83 86.2197 80.4137H76.75C76.75 79.3423 76.75 76.563 76.75 76.563C76.75 75.8022 76.1355 75.1967 75.3635 75.1967C74.5914 75.1967 73.9926 75.8022 73.9926 76.563V80.895V80.9416C73.9926 81.6714 74.5599 82.2614 75.3004 82.2924V82.3235H77.2385C77.2385 84.1712 77.2385 87.1524 77.2385 87.1524C77.2385 87.8511 77.7742 88.4256 78.4675 88.5032L89.308 88.5187V86.5934H80.0116C80.0116 85.5997 80.0116 83.6899 80.0116 82.308C83.2102 82.308 87.0548 82.308 87.0548 82.308L89.0244 82.2924C89.0244 82.2924 89.0244 80.8019 89.0244 79.5752H90.1904C90.7261 79.5442 91.1515 79.125 91.1515 78.6126C91.1515 78.1002 90.6946 77.6499 90.1273 77.6499L90.0801 77.6654Z" fill="#231815"/>
<path id="Vector_8" d="M71.6449 88.6585C71.6449 88.6585 71.6449 76.3301 71.6449 76.3146C71.6449 75.5693 71.0304 74.9482 70.2741 74.9482C69.5178 74.9482 68.8875 75.5538 68.8875 76.3146V76.9667H66.0671C65.5314 76.9978 65.106 77.417 65.106 77.9294C65.106 78.4418 65.5629 78.8921 66.1301 78.8921H68.8875C68.8875 79.3579 68.8875 79.5597 68.8875 80.1187H66.0671C65.5314 80.1497 65.106 80.569 65.106 81.0814C65.106 81.5937 65.5629 82.044 66.1301 82.044C66.1459 82.044 67.3749 82.044 68.8875 82.044V83.783H58.3149C57.7792 83.8141 57.3538 84.2333 57.3538 84.7457C57.3538 85.2581 57.8107 85.7084 58.3622 85.7084C58.4252 85.7084 66.7762 85.7084 68.8875 85.7084C68.8875 87.3697 68.8875 88.6895 68.8875 88.6895H71.6607L71.6449 88.6585Z" fill="#231815"/>
<path id="Vector_9" d="M60.3318 75.2432C57.858 75.2432 55.8412 76.9977 55.8412 79.1715C55.8412 81.3452 57.8422 83.0998 60.3318 83.0998C62.8213 83.0998 64.8224 81.3452 64.8224 79.1715C64.8224 76.9977 62.8055 75.2432 60.3318 75.2432ZM60.3003 81.19C59.1815 81.19 58.2992 80.2894 58.2992 79.1715C58.2992 78.0535 59.1973 77.153 60.3003 77.153C61.4032 77.153 62.3013 78.0535 62.3013 79.1715C62.3013 80.2894 61.4032 81.19 60.3003 81.19Z" fill="#231815"/>
<path id="Vector_10" d="M108.657 77.6653C108.657 77.6653 108.106 77.6653 107.554 77.6653C107.554 76.9511 107.554 76.2835 107.554 76.2835C107.554 75.5382 106.94 74.9326 106.168 74.9326C105.395 74.9326 104.781 75.5382 104.781 76.2835C104.781 76.2835 104.781 79.6683 104.781 81.7023C104.324 81.5471 103.82 81.4694 103.3 81.4694C103.095 81.4694 102.89 81.4694 102.685 81.516C102.811 81.3142 102.874 81.0813 102.874 80.8328V80.7862C102.874 80.7862 102.874 76.5474 102.874 76.5319C102.874 75.7866 102.26 75.1655 101.488 75.1655C100.716 75.1655 100.101 75.7711 100.101 76.5319C100.101 76.5319 100.101 79.2646 100.101 80.3204C100.022 80.3049 99.9594 80.3049 99.8807 80.3049C99.8334 80.3049 96.1936 80.3049 95.0119 80.3049C95.0119 79.9789 95.0119 79.5286 95.0119 79.0472H98.7935C99.3292 79.0162 99.7546 78.597 99.7546 78.0846C99.7546 77.5722 99.2977 77.1219 98.7304 77.1219C98.6832 77.1219 96.0676 77.1219 95.0119 77.1219V76.5629C95.0119 75.8177 94.3974 75.2121 93.6253 75.2121C92.8532 75.2121 92.2387 75.8177 92.2387 76.5629V80.8173V80.8639C92.2387 81.6092 92.8532 82.2302 93.6096 82.2302C93.6096 82.2302 94.0665 82.2302 94.6337 82.2302H99.9279C99.9909 82.2302 100.038 82.2302 100.101 82.1992C100.338 82.1992 100.558 82.1992 100.763 82.1992C99.6916 82.8824 98.9983 83.9848 98.9983 85.2425C98.9983 87.3231 100.921 89 103.284 89C105.648 89 107.586 87.3075 107.586 85.2425C107.586 85.0561 107.586 84.8698 107.538 84.6835C107.538 84.6835 107.538 80.8173 107.538 79.5907H108.704C109.24 79.5596 109.665 79.1404 109.665 78.628C109.665 78.1156 109.209 77.6653 108.641 77.6653H108.657ZM103.253 87.1523C102.118 87.1523 101.173 86.2983 101.173 85.2425C101.173 84.1866 102.102 83.3327 103.253 83.3327C104.403 83.3327 105.332 84.1866 105.332 85.2425C105.332 86.2983 104.403 87.1523 103.253 87.1523Z" fill="#231815"/>
<path id="Vector_11" d="M126.935 81.3765H125.627C125.674 81.2523 125.69 81.1281 125.69 80.9884V76.9203V76.8737C125.69 76.144 125.107 75.554 124.382 75.5229V75.4918C124.382 75.4918 119.277 75.4918 115.858 75.4918L112.029 75.4763C111.493 75.5074 111.068 75.9266 111.068 76.439C111.068 76.9514 111.525 77.4016 112.092 77.4016H112.943H122.901C122.901 78.473 122.901 80.9884 122.901 80.9884C122.901 81.1281 122.917 81.2523 122.964 81.3765H119.041C119.041 80.5847 119.041 79.5909 119.041 79.5909C119.041 78.8456 118.426 78.2246 117.654 78.2246C116.882 78.2246 116.283 78.8301 116.283 79.5909C116.283 79.5909 116.283 80.5691 116.283 81.3765H110.595C110.059 81.4076 109.634 81.8268 109.634 82.3392C109.634 82.8516 110.091 83.3019 110.658 83.3019H114.771C114.408 83.8453 114.219 84.4819 114.219 85.1496C114.219 87.2302 116.141 88.9071 118.521 88.9071C120.9 88.9071 122.806 87.2302 122.806 85.1496C122.806 84.4819 122.602 83.8453 122.255 83.3019H126.919V81.3765H126.935ZM118.489 87.137C117.307 87.137 116.346 86.2364 116.346 85.134C116.346 84.0316 117.307 83.1311 118.489 83.1311C119.671 83.1311 120.632 84.0316 120.632 85.134C120.632 86.2364 119.671 87.137 118.489 87.137Z" fill="#231815"/>
<path id="Vector_12" d="M36.5551 81.8419V79.9631H35.531V77.3081C35.531 76.3299 34.7116 75.5225 33.719 75.5225H21.0822C20.5623 75.5225 20.1211 75.9417 20.1211 76.4541C20.1211 76.9665 20.5465 77.3857 21.0822 77.3857H32.8366V79.9321H20.2786C19.7587 79.9321 19.3333 80.3513 19.3333 80.8792C19.3333 81.4071 19.7587 81.8108 20.2786 81.8108H26.5497V83.5033H21.0822C20.5623 83.5033 20.1211 83.9225 20.1211 84.4349C20.1211 84.9473 20.5465 85.3665 21.0822 85.3665H32.8366V88.5961H35.5467V85.2733C35.5467 84.2951 34.7274 83.4877 33.7347 83.4877H29.3702V81.7953H36.5867L36.5551 81.8419Z" fill="#231815"/>
<path id="Vector_13" d="M17.7261 79.9633C17.7261 79.9633 16.7019 79.9633 16.5128 79.9633V76.299C16.4813 75.5382 15.8353 74.9171 15.0475 74.9171C14.2597 74.9171 13.5979 75.5226 13.5664 76.299V86.7175H4.83725V85.2424C4.83725 84.8698 4.69545 84.5437 4.4591 84.2798C4.97906 84.4661 5.5463 84.5748 6.14505 84.5748C8.68185 84.5748 10.746 82.696 10.746 80.3981C10.746 79.5907 10.4938 78.8454 10.0527 78.1932H12.5264V76.2213H7.62616C7.62616 76.2213 7.51586 76.2213 7.42132 76.2213V75.8021C7.42132 75.0723 6.82258 74.4668 6.06626 74.4668C5.30995 74.4668 4.72696 75.0568 4.72696 75.7866V76.2213H0.913879C0.40967 76.2524 0 76.7027 0 77.2151C0 77.7274 0.441183 78.1777 0.976905 78.1777C0.992661 78.1777 1.62292 78.1777 2.23743 78.1777C1.79624 78.8143 1.54414 79.5751 1.54414 80.3825C1.54414 81.78 2.30045 83.0221 3.46644 83.7829C3.41917 83.7829 3.38765 83.7829 3.35614 83.7829C2.5368 83.7829 1.87503 84.435 1.87503 85.2424V87.4007C2.01684 88.0528 2.61558 88.5497 3.32463 88.5497C3.41917 88.5497 3.51371 88.5497 3.60824 88.5497H16.5128V81.9197C16.7807 81.9197 17.7103 81.9197 17.7419 81.9197C18.2933 81.9197 18.7345 81.4849 18.7345 80.9415C18.7345 80.3981 18.2933 79.9633 17.7419 79.9633H17.7261ZM6.14505 82.5408C5.01058 82.5408 4.0967 81.547 4.0967 80.3204C4.0967 79.0938 5.02633 78.0846 6.14505 78.0846C7.26376 78.0846 8.20915 79.0783 8.20915 80.3204C8.20915 81.5626 7.29527 82.5408 6.14505 82.5408Z" fill="#231815"/>
</g>
<defs>
<clipPath id="clip0_317_191">
<rect width="146" height="89" fill="white"/>
</clipPath>
</defs>
</svg>
