<svg width="64" height="80" viewBox="0 0 64 80" fill="none" xmlns="http://www.w3.org/2000/svg">
<g id="Layer_1" clip-path="url(#clip0_317_149)">
<path id="Vector" d="M32.0021 30.3669L16.0528 0L32.0021 8.02012L47.9596 0L32.0021 30.3669Z" fill="#FCC800"/>
<path id="Vector_2" d="M53.0227 23.7783L63.913 19.1479V3.19482L44.3958 11.4971L33.5821 32.0391C41.6623 32.8212 47.9596 39.6567 47.9596 47.9465C47.9596 56.7923 40.8174 63.9328 32.0021 63.9328C23.1867 63.9328 16.0362 56.7923 16.0362 47.9465C16.0362 39.6588 22.3522 32.8212 30.4117 32.0391L19.6104 11.4971L0.0931858 3.19482V19.15L10.9814 23.7804C4.2617 29.6513 0 38.3021 0 47.9445C0 65.6526 14.3237 80.0001 32.0021 80.0001C49.6805 80.0001 64 65.6526 64 47.9445C64 38.3021 59.7487 29.6513 53.0206 23.7804L53.0227 23.7783Z" fill="#FCC800"/>
</g>
<defs>
<clipPath id="clip0_317_149">
<rect width="64" height="80" fill="white"/>
</clipPath>
</defs>
</svg>
