<svg width="115" height="112" viewBox="0 0 115 112" fill="none" xmlns="http://www.w3.org/2000/svg">
<g id="Layer_1" clip-path="url(#clip0_317_119)">
<g id="REG_MARK">
<path id="Vector" d="M99.7916 101.026C97.3712 101.026 95.4052 103.004 95.4052 105.44C95.4052 107.875 97.3712 109.854 99.7916 109.854C102.212 109.854 104.178 107.875 104.178 105.44C104.178 103.004 102.212 101.026 99.7916 101.026ZM99.7916 109.079C97.7978 109.079 96.1842 107.455 96.1842 105.449C96.1842 103.443 97.7978 101.819 99.7916 101.819C101.785 101.819 103.399 103.443 103.399 105.449C103.399 107.455 101.785 109.079 99.7916 109.079Z" fill="white"/>
<path id="Vector_2" d="M101.822 107.465L101.776 106.494C101.748 105.748 101.461 105.617 101.173 105.486C101.498 105.281 101.869 104.992 101.869 104.199C101.869 103.06 101.043 102.761 100.227 102.761H97.909V108.118H98.586V105.822H100.227C101.034 105.822 101.118 106.336 101.118 106.774C101.118 106.979 101.136 107.791 101.238 108.118H102.064V107.997C101.85 107.866 101.822 107.754 101.813 107.455L101.822 107.465ZM100.162 105.206H98.5953V103.387H100.283C100.617 103.387 101.183 103.452 101.183 104.283C101.183 105.113 100.663 105.206 100.162 105.206Z" fill="white"/>
</g>
<path id="WHITE_BACKGROUND" d="M57.412 112C45.6069 111.813 34.1356 108.202 24.2501 101.567C22.7293 100.606 7.78051 90.6676 1.4282 69.3444C0.983071 67.926 -3.86694 51.3621 7.33538 39.6881C8.32764 38.5402 13.2147 33.2958 21.1899 31.0842C21.802 27.762 23.1281 22.7415 25.9101 17.7117C30.3799 9.63039 39.4864 0.00933178 57.4491 0H57.5233L57.5511 0.0279953V0C75.5137 0.00933178 84.6203 9.63973 89.0901 17.7024C91.8814 22.7322 93.1982 27.7527 93.8103 31.0748C101.795 33.2865 106.682 38.5402 107.674 39.6787C118.876 51.3528 114.017 67.926 113.572 69.3444C107.22 90.6676 92.2709 100.606 90.7593 101.567C80.8645 108.211 69.4025 111.813 57.5882 112H57.514H57.412Z" fill="white"/>
<path id="RED_KEYLINE" d="M104.011 43.0568C104.011 43.0568 98.6509 36.4499 89.3775 35.2647C89.3775 35.2647 87.6619 5.0111 57.5417 4.99243H57.5139H57.4397C27.3289 5.0111 25.6133 35.2647 25.6133 35.2647C16.3491 36.4499 10.989 43.0568 10.989 43.0568C1.33538 52.9858 6.15758 67.8793 6.15758 67.8793C12.241 88.3345 26.9301 97.3864 26.9301 97.3864C38.7445 105.337 50.2157 106.905 57.4768 107.026H57.5046C64.7658 106.914 76.2463 105.337 88.0606 97.3864C88.0606 97.3864 102.75 88.3345 108.824 67.8793C108.824 67.8793 113.646 52.9858 104.002 43.0568H104.011Z" fill="#DF3232"/>
<path id="WHITE_INNER_SHAPE" d="M100.19 45.3523C100.19 45.3523 95.5443 40.1079 85.223 39.0441C85.223 39.0441 84.6573 9.02374 57.5046 9.0144C57.5046 9.0144 57.5046 9.0144 57.4954 9.0144H57.4861C30.3242 9.03307 29.777 39.0534 29.777 39.0534C19.4464 40.1172 14.8004 45.3617 14.8004 45.3617C6.02774 54.4042 10.6552 67.2634 10.6552 67.2634C16.2656 86.1695 29.7678 94.1855 29.7678 94.1855C40.6548 101.511 50.9761 102.985 57.4861 102.995H57.5046C64.0239 102.985 74.3452 101.511 85.2322 94.1855C85.2322 94.1855 98.7344 86.1602 104.354 67.2634C104.354 67.2634 108.972 54.3948 100.19 45.3617V45.3523Z" fill="white"/>
<path id="TEXT_HOLDER" d="M89.0158 48.1425C85.7979 47.9839 76.4874 48.1425 76.4874 48.1425C76.4874 48.1425 69.3283 57.5863 57.6623 57.6889C46.0705 57.7916 38.8372 48.1425 38.8372 48.1425C38.8372 48.1425 29.5267 47.9839 26.3088 48.1425C1.27974 49.365 19.0013 99.374 57.6623 98.8887C96.9353 98.3942 113.757 49.3557 89.0158 48.1425Z" fill="#DF3232"/>
<path id="Vector_3" d="M37.3627 60.5913C31.9377 60.5913 27.5421 64.1001 27.5421 68.4393C27.5421 71.9387 30.4447 74.9249 34.423 75.9141V80.6173H28.0058V83.1182H46.7753V80.6173H40.2838V75.9234C44.29 74.9343 47.1926 71.9574 47.1926 68.4393C47.1926 64.1094 42.7969 60.5913 37.372 60.5913H37.3627ZM37.3163 73.9078C34.9052 73.9078 32.9485 71.3602 32.9485 68.234C32.9485 65.1079 34.9052 62.551 37.3163 62.551C39.7274 62.551 41.6841 65.0986 41.6841 68.234C41.6841 71.3695 39.7367 73.9078 37.3163 73.9078Z" fill="white"/>
<path id="Vector_4" d="M60.2867 72.3774L67.557 72.3867V69.9511H64.0702V63.4562H67.557V61.002H58.636V70.763L58.6638 70.791C58.6824 71.6775 59.3964 72.3774 60.2774 72.3867L60.2867 72.3774Z" fill="white"/>
<path id="Vector_5" d="M48.5465 76.7445H54.9823V81.8583C54.973 81.9329 54.9637 82.0263 54.9637 82.1009C54.9637 83.3607 56.2713 84.3872 57.8756 84.3872C59.4799 84.3872 60.7874 83.37 60.7967 82.1196V76.7351H67.7796V74.1782H48.5279V76.7538L48.5465 76.7445Z" fill="white"/>
<path id="Vector_6" d="M48.7876 70.7348V70.7628C48.7969 71.6587 49.5295 72.3865 50.4197 72.3865C50.4197 72.3865 50.4197 72.3865 50.4383 72.3865L57.143 72.3959V69.9323H54.2404V63.4654H57.143V60.9924H48.7598V70.7068L48.7691 70.7255L48.7876 70.7348Z" fill="white"/>
<path id="Vector_7" d="M69.5694 63.5213H74.8738V76.9124C74.8738 76.9124 74.8738 79.4787 70.9975 80.2159H71.0068C70.0423 80.3652 69.5323 80.8878 69.5323 81.6996C69.5323 82.5115 70.0331 83.1647 70.8584 83.1647H70.8677C70.8677 83.1647 80.0762 83.5566 80.0762 77.4817V60.9551H69.5694V63.5213Z" fill="white"/>
<path id="Vector_8" d="M82.4224 81.6716C82.4224 82.9221 83.6279 83.9392 85.2322 83.9392C86.8365 83.9392 87.9215 82.9314 87.9215 81.6716V60.5818H82.4224V81.6716Z" fill="white"/>
<g id="BOY">
<path id="Head" d="M76.1721 35.7126C80.4193 27.314 70.4504 10.4235 53.0905 15.8732C53.0905 15.8732 48.6299 12.7751 44.9762 16.1345C44.9762 16.1345 41.9531 18.7101 43.7521 22.9654C42.5095 24.2812 41.4616 25.7743 40.627 27.4073C40.5713 27.51 40.525 27.6126 40.4693 27.7246C40.4137 27.8459 40.3488 27.9672 40.2931 28.0885C40.1726 28.3405 40.0613 28.5925 39.9593 28.8444C39.9593 28.8537 39.95 28.8724 39.9407 28.8817C39.8202 29.1804 39.7089 29.4883 39.5976 29.7963C39.5976 29.7963 39.5976 29.8056 39.5976 29.8149C38.9948 31.5506 38.6703 33.3237 38.5961 35.05C38.5868 35.302 38.5868 35.554 38.5775 35.7966C38.5775 35.8526 38.5775 35.9179 38.5775 35.9739C38.6239 54.9454 65.6282 60.0965 73.5848 44.6804C74.9573 43.6166 79.7238 39.492 76.1721 35.6939V35.7126ZM71.4055 40.7704C69.3746 48.4411 61.1955 49.9622 57.5139 49.9622C49.1585 49.9622 42.324 44.3538 41.7954 36.0859V36.1045C41.7954 36.0392 41.7954 35.9739 41.7954 35.9086C41.7769 34.8354 41.9067 33.7996 42.1385 32.8291C42.7506 29.9456 44.1694 27.3607 46.1354 25.317C46.3209 25.345 46.7196 25.3823 46.7196 25.3823C50.9205 25.7556 53.0534 24.1505 53.0534 24.1505C59.6839 28.0792 60.4721 23.376 60.4721 23.376C57.2172 23.7119 58.636 21.8549 58.636 21.8549C59.4335 20.7258 61.3809 21.1177 61.3809 21.1177C71.4426 22.7788 68.2433 29.5536 68.2433 29.5536C71.3035 31.2707 69.894 32.7171 69.894 32.7171C67.8538 32.1572 67.6034 32.9317 67.8723 33.8462C68.1413 34.7701 68.8646 35.4326 69.5694 36.0859C70.0702 36.5525 70.3947 37.2057 70.5987 37.7189C70.6915 37.9149 70.7564 38.1389 70.812 38.3628C70.8306 38.4375 70.8491 38.5121 70.8584 38.5868C70.9233 38.9694 70.9604 39.324 70.9882 39.5666C71.0902 39.6693 71.2386 39.5666 71.3684 39.408C71.9248 38.0829 74.1319 36.5711 74.1319 38.8201C74.1319 41.5076 71.4333 40.7704 71.4333 40.7704H71.4055Z" fill="#DF3232"/>
<path id="MOUTH" d="M65.3778 39.9213C65.2851 39.7347 65.0347 39.688 64.7565 39.8374C64.3763 40.0427 64.0239 40.3133 63.6437 40.5279C63.0409 40.8732 61.5293 41.6571 60.7411 41.6571C61.8632 39.7814 61.4922 38.0643 60.2867 37.8404C59.35 37.6631 58.84 38.1576 57.7921 39.1748C56.8555 40.08 55.7334 40.7799 54.602 40.7145C53.2945 40.6399 52.2466 39.8187 51.2914 38.9882C50.225 38.0643 48.8432 36.8232 47.3688 36.7392C46.9422 36.7112 46.6362 37.1031 47.4986 37.5417C49.7984 38.6989 51.1709 41.0132 53.3965 42.2636C56.0302 43.7474 59.0626 43.766 61.8631 42.7769C63.2727 42.2823 65.7765 40.7425 65.3778 39.9213ZM58.6824 41.6571C57.9405 41.853 56.9482 41.6571 56.9482 41.6571C56.9482 41.6571 58.8771 41.3958 59.7766 39.5947C59.4891 41.0505 58.6824 41.6477 58.6824 41.6477V41.6571Z" fill="#DF3232"/>
<g id="EYES">
<path id="Vector_9" d="M48.5372 27.5564C49.2234 27.3978 49.919 27.4071 50.5125 27.7897C51.106 28.1723 51.4213 28.4243 51.5882 27.995C51.718 27.6684 51.5604 27.0338 51.2914 26.7259C50.633 25.9513 49.0194 24.8315 46.2559 27.5844C46.2559 27.5844 44.3363 29.6374 46.562 28.3963C47.1184 28.079 47.8232 27.7337 48.5279 27.5657L48.5372 27.5564Z" fill="#DF3232"/>
<path id="Vector_10" d="M64.0146 24.3277L61.5386 25.4195C59.8786 26.2501 60.8616 27.3885 60.8616 27.3885C62.2526 28.7883 63.384 27.6498 63.384 27.6498C65.2201 25.5688 67.2325 26.5487 67.2325 26.5487C66.6482 22.6387 64.0239 24.3277 64.0239 24.3277H64.0146Z" fill="#DF3232"/>
<path id="Vector_11" d="M59.6468 30.9813C58.228 30.9906 57.0873 32.1477 57.0966 33.5755C57.0966 35.0126 58.2651 36.1604 59.6839 36.1511C61.112 36.1324 62.2526 34.9753 62.2341 33.5475C62.2341 32.1291 61.0656 30.9719 59.6561 30.9813H59.6468Z" fill="#DF3232"/>
<path id="Vector_12" d="M54.2404 33.2488C54.3702 33.0155 54.4258 32.7449 54.4073 32.4743C54.3331 31.7277 54.0178 30.328 52.6824 30.188C52.6824 30.188 54.2404 32.4836 52.0889 32.8569C52.0889 32.8569 49.8633 33.3888 52.4042 34.9005C52.4042 34.9005 54.7597 36.2163 54.7411 34.7792C54.7411 34.7792 53.2852 34.9659 54.2404 33.2488Z" fill="#DF3232"/>
<path id="Vector_13" d="M51.0225 32.1384C51.0039 31.9518 50.939 31.7652 50.8741 31.5879C50.7721 31.3172 50.6794 31.0466 50.531 30.7947C50.3363 30.468 50.0673 30.1694 49.7613 29.9455C49.3254 29.6375 48.8154 29.4789 48.2868 29.4509C48.055 29.4415 47.8139 29.4509 47.582 29.4882C47.3131 29.5255 47.0349 29.5815 46.7567 29.6562C46.5341 29.7122 46.3209 29.7868 46.1261 29.8708C45.6439 30.0854 46.1354 30.1881 46.4229 30.2161C46.6732 30.2441 46.9236 30.2441 47.1833 30.2441C47.6933 30.2347 49.0194 30.1974 49.7798 31.1399C49.752 31.1213 49.7335 31.1026 49.7057 31.0933C48.6207 30.4027 47.5171 30.692 46.7567 31.0559C46.2559 31.2986 45.8665 31.5692 45.9221 31.7745C45.9963 32.0264 46.664 31.7932 46.9514 31.6812C47.4058 31.5039 47.9437 31.4945 48.4259 31.5692C49.2605 31.6998 49.9931 32.2038 50.8092 32.3811C50.8741 32.3997 50.9576 32.3904 50.9947 32.3437C51.0318 32.2877 51.0318 32.2038 51.0225 32.1478V32.1384Z" fill="#DF3232"/>
</g>
</g>
</g>
<defs>
<clipPath id="clip0_317_119">
<rect width="115" height="112" fill="white"/>
</clipPath>
</defs>
</svg>
