<svg width="57" height="21" viewBox="0 0 57 21" fill="none" xmlns="http://www.w3.org/2000/svg">
<g id="pulio_logo" opacity="0.5">
<path id="Vector" d="M42.955 0H39.2409L38.3908 3.89026H42.1049L42.955 0Z" fill="white"/>
<path id="Vector_2" d="M54.4967 7.34679C53.2375 6.02791 51.5282 5.30208 49.6871 5.30208H49.6689C48.787 5.30208 47.9369 5.48354 47.1368 5.79334C44.8275 6.69178 42.9727 8.74534 42.3181 11.2503C42.3181 11.2415 41.2271 15.9771 41.2271 15.9771C41.1453 16.3621 40.8089 16.6321 40.4088 16.6365C40.0588 16.6365 39.836 16.4506 39.7406 16.3355C39.6451 16.2205 39.4905 15.9771 39.5633 15.6451L41.859 5.14718L38.1313 5.15603L35.7947 15.6496C35.6901 16.1275 35.2537 16.4727 34.7491 16.4727C34.3082 16.4727 34.04 16.2338 33.9218 16.0877C33.8036 15.9461 33.6172 15.6407 33.7081 15.2202L37.0266 0H33.3081L29.8986 15.6141C29.7941 16.0921 29.3577 16.4373 28.8576 16.4373C28.4166 16.4373 28.1484 16.1983 28.0302 16.0523C27.912 15.9062 27.7257 15.6053 27.8166 15.1848L29.9486 5.54993H26.1937L24.3435 13.7863C24.0162 15.3088 22.7206 16.4241 21.2613 16.4418C21.2477 16.4418 21.2386 16.4418 21.225 16.4418C20.3703 16.4418 19.593 16.0788 19.0293 15.4106C18.3747 14.636 18.1292 13.6004 18.3519 12.5781C18.3519 12.5781 19.393 6.8334 19.2884 6.25805C19.2202 4.89934 18.7247 3.58488 17.8292 2.49171C16.5336 0.920562 14.6152 0.0221289 12.5559 0.0221289H0.845544L0 3.73978H12.5559C13.4378 3.73978 14.2561 4.16908 14.8061 4.83738C15.3562 5.50567 15.5607 6.36869 15.3653 7.20517L15.2243 7.8115C14.747 9.86948 12.9014 11.3079 10.733 11.3079H6.13701L7.50534 5.23569H3.65948L0.340945 19.916L4.19135 19.9249L5.28692 15.0742H10.733C12.1604 15.0742 13.5105 14.729 14.697 14.1227C14.7061 14.2112 14.988 16.1098 16.2199 17.6589C17.4518 19.2079 19.2884 19.9824 21.225 19.9824C21.2522 19.9824 21.2795 19.9824 21.3068 19.9824C22.8251 19.9647 24.2526 19.4159 25.4027 18.5042C26.2937 19.4469 27.5302 20.0222 28.8531 20.0222C29.9395 20.0222 30.9578 19.615 31.7715 18.9866C32.6035 19.6505 33.6445 20.0222 34.7446 20.0222C35.7583 20.0222 36.7084 19.5398 37.4903 18.9866C38.7677 20.0798 40.4361 20.0222 40.4588 20.0222C41.9635 20.0001 43.2955 19.4336 44.091 18.2917C45.3366 19.5354 46.9959 20.2258 48.787 20.2258H48.8052C52.6828 20.217 56.0878 16.9242 56.3969 12.8879C56.556 10.8033 55.865 8.78517 54.4921 7.35564L54.4967 7.34679ZM52.7738 12.6179C52.6056 14.8131 50.7872 16.6719 48.8006 16.6763H48.7915C47.7369 16.6763 47.0413 16.1806 46.6413 15.7646C45.9594 15.0521 45.6185 14.0076 45.7003 12.9056C45.8685 10.7104 47.6869 8.85156 49.6734 8.84713H49.6825C50.7372 8.84713 51.4327 9.34282 51.8328 9.75884C52.5146 10.4714 52.8556 11.5159 52.7738 12.6179Z" fill="white"/>
</g>
</svg>
