<svg width="110" height="69" viewBox="0 0 110 69" fill="none" xmlns="http://www.w3.org/2000/svg">
<g id="Layer_1" clip-path="url(#clip0_317_182)">
<path id="Vector" d="M54.8074 0.000244141C42.9051 0.000244141 33.2535 9.59184 33.2535 21.4201C33.2535 33.2484 42.9051 42.84 54.8074 42.84C66.7097 42.84 76.3613 33.2484 76.3613 21.4201C76.3613 9.59184 66.7148 0.000244141 54.8074 0.000244141ZM55.2585 38.9157C52.6783 39.2784 48.4811 38.6235 45.6373 36.8402C43.1484 35.2735 41.6631 33.3189 40.7 31.3341C39.7166 29.304 39.2502 26.8456 40.2995 26.9665C40.7913 27.0219 41.212 27.9488 42.1599 29.1528C42.8088 29.974 43.4019 30.6692 43.853 30.7598C44.0558 30.8001 44.218 30.7095 44.365 30.4425C44.6336 29.9337 44.9936 28.9664 45.6424 28.1806C46.1645 27.5811 46.7931 27.299 47.1631 28.7649C47.3406 29.4954 47.4825 30.246 47.5636 30.9009C47.6802 31.8278 47.741 32.3819 48.0604 32.5381C48.3696 32.6892 48.8968 32.4928 49.7433 32.1804C50.3516 31.9537 51.1323 31.6666 52.1258 31.3845C53.0383 31.1225 53.6161 31.2636 53.0281 32.6691C52.7493 33.334 52.4705 33.8932 51.4871 35.3037C51.3148 35.5506 51.3452 35.7974 51.5631 36.009C51.8926 36.3314 52.6429 36.7294 53.4641 37.0871C54.123 37.3692 54.9088 37.616 55.4258 37.7621C56.2369 37.9938 56.0797 38.8049 55.2636 38.9207L55.2585 38.9157ZM66.3194 34.3113C65.5184 35.611 63.8355 37.0115 61.7926 37.9434C61.4834 38.0795 61.1539 38.0392 61.0677 37.7873C60.9968 37.5707 61.1691 37.3188 61.3719 37.082C64.0281 33.6564 62.0562 30.513 57.7627 28.0748C54.5945 26.2713 52.577 25.2386 50.2401 23.8684C43.3866 19.8585 42.0636 16.3674 41.7949 14.297C41.1207 9.078 45.465 5.16378 49.9309 4.22175C50.0677 4.19656 50.4226 4.13611 50.5392 4.43333C50.6558 4.73055 50.3922 4.94213 50.235 5.03784C48.2378 6.131 46.276 8.4483 46.4889 11.0275C46.6106 12.4683 47.229 14.5388 51.1525 17.3195C53.5198 18.997 56.4194 20.3723 62.2641 23.8533C68.4383 27.5307 67.7336 32.0192 66.3244 34.3063L66.3194 34.3113ZM67.2876 14.7201C65.8783 16.4379 64.4691 15.7982 63.3843 13.3801C62.7101 11.8739 61.818 11.5112 61.1894 11.9041C60.5051 12.3323 60.7737 13.365 61.5442 14.5539C62.0461 15.3297 61.823 16.2465 61.3009 16.7855C60.7535 17.3548 59.8562 17.5815 58.8779 17.3649C57.1392 16.982 55.4309 14.6697 56.6779 9.62206C57.1797 7.58183 56.1963 6.71033 55.5728 5.9295C55.2585 5.53657 55.2231 5.2998 55.3346 5.14363C55.4562 4.97236 55.7452 4.95724 56.2572 5.06807C56.9263 5.20912 57.9198 5.54664 58.7258 5.67258C59.2631 5.75318 59.8664 5.77837 60.5101 5.75318C62.2438 5.68769 63.5212 5.95469 64.829 6.5995C67.0493 7.69266 67.2724 9.56665 66.0406 9.42056C65.6148 9.37018 65.0622 9.04777 64.6111 8.82612C64.3069 8.68003 64.0433 8.63469 63.8507 8.77071C63.6682 8.90168 63.5922 9.17371 63.7189 9.44574C63.9926 10.02 64.9254 10.3172 66.1876 10.6648C68.3977 11.2694 68.4433 13.3096 67.2876 14.7151V14.7201Z" fill="#0046FF"/>
<path id="Vector_2" d="M4.56728 53.5649C4.56728 52.9554 4.53179 52.6229 4.17695 52.235C3.95391 51.9579 4.10092 51.701 4.36451 51.701H7.57327V54.1543C7.57327 56.5724 9.95069 57.993 12.1 58.7083L11.2991 60.2045C11.0558 60.6478 10.1484 60.4816 8.55161 59.5043C7.64424 58.9501 6.77235 58.2146 6.19447 57.4389C5.51013 58.4161 4.65345 59.2272 3.67004 59.872C2.53963 60.6075 1.08986 61.3128 0.846539 60.8493L-0.00507355 59.2423C2.46359 58.2852 4.56221 56.6782 4.56221 54.3357V53.5599L4.56728 53.5649ZM16.7788 66.4612V68.5468H6.17926C3.93364 68.5468 3.04147 67.9775 3.04147 66.1136V63.4386C3.04147 63.0709 2.90967 62.7938 2.65115 62.4815C2.42811 62.2044 2.57511 61.9475 2.83871 61.9475H5.9917V65.7307C5.9917 66.3 6.17926 66.4662 6.75207 66.4662H16.7737L16.7788 66.4612ZM13.5498 62.8795V53.2879C13.5498 52.6431 13.4382 52.3106 13.0834 51.9227C12.8604 51.6456 13.0074 51.4038 13.2862 51.4038H16.4594V62.8744H13.5447L13.5498 62.8795Z" fill="#0046FF"/>
<path id="Vector_3" d="M22.9226 52.774C22.9226 52.1292 22.8871 51.832 22.5323 51.4089C22.2889 51.1318 22.441 50.895 22.7198 50.895H25.8931V52.9604H30.1055V54.9906H28.159C28.7318 55.6354 29.0866 56.4313 29.0866 57.3683C29.0866 59.6907 27.3631 61.4639 24.2811 61.4639C21.1991 61.4639 19.4756 59.6957 19.4756 57.3683C19.4756 56.4112 19.8101 55.6153 20.3677 54.9906H18.4212V52.9604H22.9327V52.774H22.9226ZM34.7438 66.4612V68.5468H24.3318C22.0862 68.5468 21.194 67.9775 21.194 66.1136V64.1792C21.194 63.8114 21.0622 63.5344 20.8037 63.222C20.5807 62.945 20.7277 62.688 20.9912 62.688H24.1442V65.7307C24.1442 66.3 24.3318 66.4662 24.9046 66.4662H34.7438V66.4612ZM24.276 59.4338C25.5585 59.4338 26.2986 58.4565 26.2986 57.2777C26.2986 56.0233 25.5585 55.0662 24.276 55.0662C22.9936 55.0662 22.2535 56.0233 22.2535 57.2777C22.2535 58.4565 22.9783 59.4338 24.276 59.4338ZM31.606 63.1414V53.2929C31.606 52.6481 31.5148 52.3509 31.1599 51.9277C30.9166 51.6507 31.0687 51.4089 31.3475 51.4089H34.5207V55.7613H36.6346V57.8469H34.5207V63.1414H31.606Z" fill="#0046FF"/>
<path id="Vector_4" d="M49.8244 54.1745C49.8447 53.9176 49.6926 53.7866 49.3783 53.7866H39.377V51.7766H50.306C52.3843 51.7766 52.8507 52.3307 52.6834 54.1191L52.3286 57.8066H54.8327V59.8368H37.1465V57.8066H49.4899L49.8244 54.1745ZM39.2452 62.9903C39.2452 62.6226 39.1134 62.3455 38.8548 62.0332C38.6318 61.7561 38.7788 61.4992 39.0424 61.4992H52.2373C52.5364 61.4992 52.6631 61.5899 52.6631 61.9072V68.6375H41.288C39.9903 68.6375 39.2452 67.8617 39.2452 66.7181V62.9903ZM49.8041 66.6778V63.4135H42.0991V66.1438C42.0991 66.5317 42.2664 66.6778 42.6922 66.6778H49.7991H49.8041Z" fill="#0046FF"/>
<path id="Vector_5" d="M71.4949 65.4992C71.4949 67.7309 68.935 69.0054 64.5553 69.0054C60.1756 69.0054 57.6157 67.7309 57.6157 65.4992C57.6157 64.4111 58.229 63.5446 59.3797 62.9351H59.324V60.8142H55.7046V58.8244H73.3908V60.8142H69.7714V62.9351H69.7157C70.8664 63.5446 71.4949 64.4111 71.4949 65.4992ZM71.3479 54.487C71.3479 56.5323 69.2899 57.9176 64.5553 57.9176C59.8207 57.9176 57.7627 56.5323 57.7627 54.487C57.7627 52.4417 59.8207 51.0564 64.5553 51.0564C69.2899 51.0564 71.3479 52.4417 71.3479 54.487ZM68.636 65.4992C68.636 64.4111 67.2267 63.9678 64.5553 63.9678C61.8839 63.9678 60.4747 64.4111 60.4747 65.4992C60.4747 66.5873 61.8839 67.0306 64.5553 67.0306C67.2267 67.0306 68.636 66.5873 68.636 65.4992ZM68.489 54.487C68.489 53.4543 67.2622 52.9908 64.5553 52.9908C61.8484 52.9908 60.6217 53.4493 60.6217 54.487C60.6217 55.5248 61.8484 55.9832 64.5553 55.9832C67.2622 55.9832 68.489 55.5248 68.489 54.487ZM64.5553 61.993C65.4069 61.993 66.2078 62.0484 66.9327 62.1391V60.8092H62.1627V62.1391C62.8876 62.0484 63.6834 61.993 64.5553 61.993Z" fill="#0046FF"/>
<path id="Vector_6" d="M86.2511 54.9151C86.2714 54.5624 86.1396 54.4164 85.7696 54.4164H75.824V52.3157H86.1447C88.6894 52.3157 89.2977 52.9252 89.2064 55.2324L88.6691 65.0457H91.4521V67.1464H73.7659V65.0457H85.7747L86.2562 54.9201L86.2511 54.9151Z" fill="#0046FF"/>
<path id="Vector_7" d="M110 59.469V61.4236H102.67V63.0658H99.664V61.4236H92.3138V59.469H110ZM94.3161 63.7308C94.3161 63.3631 94.1843 63.086 93.9258 62.7737C93.7027 62.4966 93.8498 62.2397 94.1134 62.2397H97.1751V63.751H105.063V62.2397H107.922V68.6374H96.359C95.0613 68.6374 94.3161 67.8616 94.3161 66.7181V63.7308ZM104.875 54.1543V53.2879H94.4428V51.4995H107.288C107.587 51.4995 107.714 51.5902 107.714 51.9076V55.8923H97.3221V56.4464C97.3221 56.7437 97.4336 56.7991 97.7124 56.7991H107.957V58.5874H96.1511C94.8686 58.5874 94.4783 58.1441 94.4783 57.0358V56.0384C94.4783 55.4288 94.3465 55.1165 93.9968 54.6933C93.7737 54.3961 93.9055 54.1594 94.1843 54.1594H104.875V54.1543ZM97.6212 66.6979H105.063V65.63H97.1751V66.2597C97.1751 66.6073 97.3221 66.703 97.6212 66.703V66.6979Z" fill="#0046FF"/>
</g>
<defs>
<clipPath id="clip0_317_182">
<rect width="110" height="69" fill="white"/>
</clipPath>
</defs>
</svg>
