<svg width="112" height="88" viewBox="0 0 112 88" fill="none" xmlns="http://www.w3.org/2000/svg">
<g id="Layer_1" clip-path="url(#clip0_317_206)">
<path id="Vector" d="M16.4799 64.5846C13.3644 63.1228 10.8087 61.9421 10.8087 59.5509C10.8087 57.7253 12.2644 56.3958 15.1395 56.3958C16.1966 56.3958 17.0628 56.5214 17.9553 56.6868C18.4229 56.7695 18.9202 56.8356 19.3352 56.8356C21.848 56.8356 23.2641 55.3308 24.206 52.4766L24.5947 51.3092C24.1929 51.1438 20.0894 49.3347 14.7377 49.3347C6.22438 49.3347 1.72897 54.8182 1.73227 60.5067C1.73227 63.3774 2.62805 65.4544 4.02773 67.0948C5.83248 69.2015 8.40458 70.5807 10.812 71.758C14.3194 73.4878 17.4843 74.7644 17.4843 77.3242C17.4843 79.5963 15.1461 80.8894 12.0207 80.8894C7.73603 80.8894 3.9915 78.4288 3.51396 78.1345L-0.00332642 84.7556C0.622409 85.1095 5.15075 88.0001 12.6069 88.0001C20.5504 87.9935 26.5674 83.4195 26.5674 76.3816C26.5674 69.3437 20.9917 66.7806 16.4766 64.5846H16.4799Z" fill="#CE0E2D"/>
<path id="Vector_2" d="M47.5526 67.8554L61.9642 50.1118H51.6956L40.2018 65.4245H40.0306V50.1118H31.5667V87.7023H32.0739C35.7328 87.7023 40.0899 86.0024 40.0899 79.8641V71.2354H40.2611L51.9788 87.236H62.7513L47.5559 67.8587L47.5526 67.8554Z" fill="#CE0E2D"/>
<path id="Vector_3" d="M62.4451 9.84584C59.4646 10.4114 55.0482 13.1267 55.0614 17.9288C55.0713 22.2911 58.6248 24.9336 58.6347 30.6486C58.6512 34.9481 56.2898 37.8452 53.7408 39.4493C54.7716 39.3567 55.9012 39.2971 57.1461 39.2971C59.7544 39.2905 61.3254 39.5386 61.4209 39.5551L74.7885 23.0816C71.0769 17.4989 66.7396 13.1696 62.4451 9.84253V9.84584Z" fill="#CE0E2D"/>
<path id="Vector_4" d="M73.6754 54.3319C75.3616 51.7026 75.5724 47.509 75.714 43.2393C75.872 39.2573 76.6987 36.2576 82.0043 36.2411C83.18 36.2378 84.2997 36.3998 86.3284 36.3932C94.104 36.3601 99.179 33.6713 102.334 31.9052C95.8824 27.7744 86.47 23.5577 74.7885 23.0847C74.0278 25.2411 68.1063 41.7708 67.6617 43.1037C67.7276 43.183 68.765 44.3505 70.0593 46.6259C71.9694 49.7513 72.9937 52.4004 73.6754 54.3319Z" fill="#CE0E2D"/>
<path id="Vector_5" d="M45.4416 40.8316C44.7664 40.835 44.4305 40.3852 44.3383 39.6013C44.2527 38.8241 40.9099 8.10615 40.4126 3.45943C40.3402 2.78144 40.1722 1.53459 40.1689 1.09142C40.1689 0.373738 40.6333 0.00332337 41.18 1.60967e-05C42.7641 -0.00659846 51.3959 2.02407 60.558 8.47326C57.9167 9.2207 53.1447 11.979 53.1644 17.6873C53.1809 22.7408 56.7838 25.5223 56.8036 30.589C56.8332 38.834 47.3978 40.8283 45.4416 40.8316Z" fill="#EE7501"/>
<path id="Vector_6" d="M74.4427 56.5247C74.5877 56.9084 74.7227 57.2292 74.8577 57.4541C75.0685 57.8113 75.3418 57.9766 75.681 57.9733C75.8951 57.9733 76.1553 57.9006 76.4451 57.7683C77.1499 57.4442 105.064 44.3936 109.276 42.4424C109.886 42.148 111.045 41.6288 111.424 41.4039C111.819 41.179 112 40.8482 112 40.5109C112 40.3224 111.944 40.1339 111.839 39.9619C111.312 39.1053 108.611 36.228 104.096 33.0828C100.51 35.0638 94.9109 38.1297 86.5853 38.166C84.5434 38.166 84.0824 38.0304 82.6893 38.0371C78.6253 38.0503 77.6109 39.7965 77.4595 43.3783C77.4331 44.053 77.4232 44.9658 77.3837 45.9613C77.2553 49.1594 76.8765 53.5713 74.4427 56.5247Z" fill="#EE7501"/>
</g>
<defs>
<clipPath id="clip0_317_206">
<rect width="112" height="88" fill="white"/>
</clipPath>
</defs>
</svg>
