<svg width="18" height="18" viewBox="0 0 18 18" fill="none" xmlns="http://www.w3.org/2000/svg">
<path id="Star 1" d="M8.04506 1.07261C8.33646 0.134991 9.66354 0.134989 9.95494 1.0726L11.2511 5.24309C11.3811 5.66132 11.7681 5.9463 12.206 5.9463H16.4918C17.4498 5.9463 17.8595 7.16322 17.0967 7.74263L13.5541 10.4335C13.219 10.688 13.0791 11.1249 13.204 11.5266L14.5389 15.8219C14.8277 16.7511 13.754 17.5036 12.9791 16.915L9.60487 14.352C9.24734 14.0805 8.75266 14.0805 8.39513 14.352L5.0209 16.915C4.24604 17.5036 3.1723 16.7511 3.46109 15.8219L4.79603 11.5266C4.92088 11.1249 4.78096 10.688 4.44595 10.4335L0.903316 7.74263C0.140491 7.16322 0.550251 5.9463 1.50818 5.9463H5.79396C6.23192 5.9463 6.61892 5.66132 6.7489 5.24309L8.04506 1.07261Z" fill="#FAF091"/>
</svg>
