<svg width="12" height="11" viewBox="0 0 12 11" fill="none" xmlns="http://www.w3.org/2000/svg">
<path id="Arrow 1" d="M0.857359 9.85736C0.64051 10.0742 0.64051 10.4258 0.857359 10.6426C1.07421 10.8595 1.42579 10.8595 1.64264 10.6426L0.857359 9.85736ZM11.0553 0.999999C11.0553 0.693328 10.8067 0.444722 10.5 0.444722L5.5025 0.444722C5.19583 0.444722 4.94722 0.693328 4.94722 0.999999C4.94722 1.30667 5.19583 1.55528 5.5025 1.55528L9.94472 1.55528L9.94472 5.9975C9.94472 6.30417 10.1933 6.55278 10.5 6.55278C10.8067 6.55278 11.0553 6.30417 11.0553 5.9975L11.0553 0.999999ZM1.64264 10.6426L10.8926 1.39264L10.1074 0.607359L0.857359 9.85736L1.64264 10.6426Z" fill="white" fill-opacity="0.77"/>
</svg>
