<svg id="pulio_logo" xmlns="http://www.w3.org/2000/svg" width="60.842" height="22.394" viewBox="0 0 60.842 22.394">
  <path id="패스_1009" data-name="패스 1009" d="M85.366,0,84.45,4.31h4.007L89.373,0Z" transform="translate(-43.054 0)" fill="#fff"/>
  <path id="패스_1010" data-name="패스 1010" d="M58.764,8.139a7.012,7.012,0,0,0-5.188-2.263h-.018a7.422,7.422,0,0,0-2.733.544,8.9,8.9,0,0,0-5.2,6.044c0-.012-1.177,5.234-1.177,5.234a.917.917,0,1,1-1.8-.369L45.131,5.7l-4.019.009-2.52,11.625a1.156,1.156,0,0,1-1.125.911,1.15,1.15,0,0,1-1.125-1.389L39.923,0H35.914L32.239,17.295a1.156,1.156,0,0,1-1.125.911,1.149,1.149,0,0,1-1.124-1.389l2.3-10.673H28.238l-1.993,9.119a3.58,3.58,0,0,1-3.322,2.942h-.041a3.023,3.023,0,0,1-2.367-1.141,3.714,3.714,0,0,1-.732-3.136s1.123-6.362,1.008-7a7.256,7.256,0,0,0-7.255-6.9H.914L0,4.143H13.536a3.14,3.14,0,0,1,2.425,1.216,3.094,3.094,0,0,1,.605,2.623l-.151.672a4.939,4.939,0,0,1-4.844,3.873H6.616L8.091,5.8H3.942L.369,22.056l4.154.011L5.7,16.692h5.87a9.147,9.147,0,0,0,4.273-1.055,9.123,9.123,0,0,0,1.641,3.918,6.762,6.762,0,0,0,5.4,2.571h.091a7.159,7.159,0,0,0,4.418-1.638,4.933,4.933,0,0,0,6.869.533,5.044,5.044,0,0,0,3.206,1.146,5.229,5.229,0,0,0,2.962-1.146,5,5,0,0,0,3.2,1.146,4.647,4.647,0,0,0,3.919-1.916,7.006,7.006,0,0,0,5.065,2.142h.018c4.181-.01,7.854-3.655,8.187-8.126a8.1,8.1,0,0,0-2.053-6.128m-1.858,5.837c-.181,2.432-2.144,4.492-4.286,4.5h-.009A3.1,3.1,0,0,1,50.3,17.46a4.178,4.178,0,0,1-1.013-3.166c.181-2.432,2.144-4.492,4.286-4.5h.008a3.1,3.1,0,0,1,2.317,1.012,4.174,4.174,0,0,1,1.012,3.166" transform="translate(0.001 0)" fill="#fff"/>
</svg>
