<svg width="53" height="19" viewBox="0 0 53 19" fill="none" xmlns="http://www.w3.org/2000/svg">
<g id="pulio_logo">
<path id="Vector" d="M40.3517 0H36.8628L36.0642 3.65449H39.5531L40.3517 0Z" fill="#180048"/>
<path id="Vector_2" d="M51.1938 6.90153C50.0109 5.66258 48.4053 4.98074 46.6757 4.98074H46.6587C45.8302 4.98074 45.0316 5.1512 44.28 5.44223C42.1107 6.28621 40.3683 8.21532 39.7534 10.5685C39.7534 10.5602 38.7285 15.0088 38.7285 15.0088C38.6516 15.3705 38.3356 15.6241 37.9598 15.6282C37.631 15.6282 37.4217 15.4536 37.3321 15.3455C37.2424 15.2374 37.0972 15.0088 37.1655 14.6969L39.3221 4.83523L35.8203 4.84354L33.6253 14.7011C33.5271 15.1501 33.1171 15.4744 32.6431 15.4744C32.2289 15.4744 31.9769 15.2499 31.8659 15.1127C31.7549 14.9796 31.5798 14.6928 31.6652 14.2978L34.7826 0H31.2894L28.0866 14.6678C27.9884 15.1168 27.5784 15.4411 27.1087 15.4411C26.6944 15.4411 26.4425 15.2166 26.3314 15.0794C26.2204 14.9422 26.0453 14.6595 26.1307 14.2646L28.1336 5.21357H24.6062L22.8681 12.9508C22.5607 14.381 21.3436 15.4287 19.9728 15.4453C19.96 15.4453 19.9514 15.4453 19.9386 15.4453C19.1358 15.4453 18.4055 15.1044 17.876 14.4766C17.2611 13.749 17.0305 12.7761 17.2397 11.8158C17.2397 11.8158 18.2176 6.41926 18.1194 5.87877C18.0554 4.60241 17.5899 3.36761 16.7486 2.3407C15.5315 0.86477 13.7294 0.0207877 11.7949 0.0207877H0.794299L0 3.51313H11.7949C12.6234 3.51313 13.3921 3.91641 13.9088 4.5442C14.4255 5.17199 14.6177 5.98271 14.434 6.76849L14.3017 7.33807C13.8533 9.27133 12.1195 10.6225 10.0825 10.6225H5.76507L7.05047 4.91838H3.43769L0.320282 18.709L3.93733 18.7173L4.9665 14.1606H10.0825C11.4234 14.1606 12.6917 13.8363 13.8063 13.2667C13.8148 13.3499 14.0796 15.1335 15.2369 16.5886C16.3942 18.0438 18.1194 18.7713 19.9386 18.7713C19.9642 18.7713 19.9899 18.7713 20.0155 18.7713C21.4418 18.7547 22.7827 18.2392 23.8631 17.3827C24.7001 18.2683 25.8617 18.8088 27.1044 18.8088C28.125 18.8088 29.0816 18.4263 29.846 17.8359C30.6275 18.4595 31.6054 18.8088 32.6389 18.8088C33.5912 18.8088 34.4837 18.3556 35.2182 17.8359C36.4182 18.8628 37.9854 18.8088 38.0068 18.8088C39.4203 18.788 40.6715 18.2558 41.4188 17.1832C42.5889 18.3514 44.1476 19 45.8302 19H45.8473C49.49 18.9917 52.6885 15.8985 52.9789 12.1068C53.1283 10.1486 52.4792 8.25274 51.1896 6.90985L51.1938 6.90153ZM49.5754 11.8532C49.4174 13.9153 47.7092 15.6615 45.843 15.6656H45.8345C44.8437 15.6656 44.1904 15.2 43.8146 14.8092C43.174 14.1398 42.8537 13.1586 42.9306 12.1234C43.0886 10.0613 44.7968 8.3151 46.6629 8.31094H46.6715C47.6622 8.31094 48.3156 8.77659 48.6914 9.1674C49.3319 9.83676 49.6522 10.8179 49.5754 11.8532Z" fill="#180048"/>
</g>
</svg>
